<svg xmlns="http://www.w3.org/2000/svg" xmlns:xlink="http://www.w3.org/1999/xlink" contentStyleType="text/css" height="578px" preserveAspectRatio="none" style="width:674px;height:578px;background:#FFFFFF;" version="1.1" viewBox="0 0 674 578" width="674px" zoomAndPan="magnify"><title>Adapter Pattern - Hotels Ophalen</title><defs/><g><text fill="#000000" font-family="sans-serif" font-size="14" font-weight="bold" lengthAdjust="spacing" textLength="233.1971" x="213.4129" y="24.9659">Adapter Pattern - Hotels Ophalen</text><!--class HotelApiAdapter--><g id="elem_HotelApiAdapter"><rect codeLine="4" fill="#F1F1F1" height="67.0679" id="HotelApiAdapter" rx="2.5" ry="2.5" style="stroke:#181818;stroke-width:0.5;" width="156.4375" x="101.5" y="212.0679"/><ellipse cx="126.8347" cy="228.0679" fill="#B4A7E5" rx="11" ry="11" style="stroke:#181818;stroke-width:1.0;"/><path d="M122.7565,223.8335 L122.7565,221.6773 L130.1472,221.6773 L130.1472,223.8335 L127.6784,223.8335 L127.6784,231.9117 L130.1472,231.9117 L130.1472,234.0679 L122.7565,234.0679 L122.7565,231.9117 L125.2253,231.9117 L125.2253,223.8335 L122.7565,223.8335 Z " fill="#000000"/><text fill="#000000" font-family="sans-serif" font-size="14" font-style="italic" lengthAdjust="spacing" textLength="101.4716" x="143.1312" y="233.4999">HotelApiAdapter</text><line style="stroke:#181818;stroke-width:0.5;" x1="102.5" x2="256.9375" y1="244.0679" y2="244.0679"/><line style="stroke:#181818;stroke-width:0.5;" x1="102.5" x2="256.9375" y1="252.0679" y2="252.0679"/><ellipse cx="112.5" cy="267.1019" fill="#84BE84" rx="3" ry="3" style="stroke:#038048;stroke-width:1.0;"/><text fill="#000000" font-family="sans-serif" font-size="14" lengthAdjust="spacing" textLength="130.4375" x="121.5" y="271.0339">fetchHotels(): String</text></g><!--class BookingApiAdapter--><g id="elem_BookingApiAdapter"><rect codeLine="9" fill="#F1F1F1" height="86.1358" id="BookingApiAdapter" rx="2.5" ry="2.5" style="stroke:#181818;stroke-width:0.5;" width="292.769" x="7" y="358.0679"/><ellipse cx="84.9797" cy="374.0679" fill="#ADD1B2" rx="11" ry="11" style="stroke:#181818;stroke-width:1.0;"/><path d="M87.9485,379.7085 Q87.3703,380.0054 86.7297,380.146 Q86.0891,380.3023 85.386,380.3023 Q82.886,380.3023 81.5578,378.6617 Q80.2453,377.0054 80.2453,373.8804 Q80.2453,370.7554 81.5578,369.0992 Q82.886,367.4429 85.386,367.4429 Q86.0891,367.4429 86.7297,367.5992 Q87.386,367.7554 87.9485,368.0523 L87.9485,370.771 Q87.3235,370.1929 86.7297,369.9273 Q86.136,369.646 85.511,369.646 Q84.1672,369.646 83.4797,370.7242 Q82.7922,371.7867 82.7922,373.8804 Q82.7922,375.9742 83.4797,377.0523 Q84.1672,378.1148 85.511,378.1148 Q86.136,378.1148 86.7297,377.8492 Q87.3235,377.5679 87.9485,376.9898 L87.9485,379.7085 Z " fill="#000000"/><text fill="#000000" font-family="sans-serif" font-size="14" lengthAdjust="spacing" textLength="128.3095" x="105.4797" y="379.4999">BookingApiAdapter</text><line style="stroke:#181818;stroke-width:0.5;" x1="8" x2="298.769" y1="390.0679" y2="390.0679"/><rect fill="none" height="6" style="stroke:#C82930;stroke-width:1.0;" width="6" x="15" y="402.1019"/><text fill="#000000" font-family="sans-serif" font-size="14" lengthAdjust="spacing" textLength="266.769" x="27" y="409.0339">bookingService : ExternalBookingService</text><line style="stroke:#181818;stroke-width:0.5;" x1="8" x2="298.769" y1="417.1358" y2="417.1358"/><ellipse cx="18" cy="432.1698" fill="#84BE84" rx="3" ry="3" style="stroke:#038048;stroke-width:1.0;"/><text fill="#000000" font-family="sans-serif" font-size="14" lengthAdjust="spacing" textLength="130.4375" x="27" y="436.1018">fetchHotels(): String</text></g><!--class TripadvisorApiAdapter--><g id="elem_TripadvisorApiAdapter"><rect codeLine="14" fill="#F1F1F1" height="86.1358" id="TripadvisorApiAdapter" rx="2.5" ry="2.5" style="stroke:#181818;stroke-width:0.5;" width="329.6169" x="335.5" y="358.0679"/><ellipse cx="422.1317" cy="374.0679" fill="#ADD1B2" rx="11" ry="11" style="stroke:#181818;stroke-width:1.0;"/><path d="M425.1004,379.7085 Q424.5223,380.0054 423.8817,380.146 Q423.2411,380.3023 422.5379,380.3023 Q420.0379,380.3023 418.7098,378.6617 Q417.3973,377.0054 417.3973,373.8804 Q417.3973,370.7554 418.7098,369.0992 Q420.0379,367.4429 422.5379,367.4429 Q423.2411,367.4429 423.8817,367.5992 Q424.5379,367.7554 425.1004,368.0523 L425.1004,370.771 Q424.4754,370.1929 423.8817,369.9273 Q423.2879,369.646 422.6629,369.646 Q421.3192,369.646 420.6317,370.7242 Q419.9442,371.7867 419.9442,373.8804 Q419.9442,375.9742 420.6317,377.0523 Q421.3192,378.1148 422.6629,378.1148 Q423.2879,378.1148 423.8817,377.8492 Q424.4754,377.5679 425.1004,376.9898 L425.1004,379.7085 Z " fill="#000000"/><text fill="#000000" font-family="sans-serif" font-size="14" lengthAdjust="spacing" textLength="147.8535" x="442.6317" y="379.4999">TripadvisorApiAdapter</text><line style="stroke:#181818;stroke-width:0.5;" x1="336.5" x2="664.1169" y1="390.0679" y2="390.0679"/><rect fill="none" height="6" style="stroke:#C82930;stroke-width:1.0;" width="6" x="343.5" y="402.1019"/><text fill="#000000" font-family="sans-serif" font-size="14" lengthAdjust="spacing" textLength="303.6169" x="355.5" y="409.0339">tripadvisorService : ExternalTripadvisorService</text><line style="stroke:#181818;stroke-width:0.5;" x1="336.5" x2="664.1169" y1="417.1358" y2="417.1358"/><ellipse cx="346.5" cy="432.1698" fill="#84BE84" rx="3" ry="3" style="stroke:#038048;stroke-width:1.0;"/><text fill="#000000" font-family="sans-serif" font-size="14" lengthAdjust="spacing" textLength="130.4375" x="355.5" y="436.1018">fetchHotels(): String</text></g><!--class ExternalBookingService--><g id="elem_ExternalBookingService"><rect codeLine="20" fill="#F1F1F1" height="67.0679" id="ExternalBookingService" rx="2.5" ry="2.5" style="stroke:#181818;stroke-width:0.5;" width="210.8273" x="48" y="504.0679"/><ellipse cx="73.6623" cy="520.0679" fill="#ADD1B2" rx="11" ry="11" style="stroke:#181818;stroke-width:1.0;"/><path d="M76.631,525.7085 Q76.0529,526.0054 75.4123,526.146 Q74.7716,526.3023 74.0685,526.3023 Q71.5685,526.3023 70.2404,524.6617 Q68.9279,523.0054 68.9279,519.8804 Q68.9279,516.7554 70.2404,515.0992 Q71.5685,513.4429 74.0685,513.4429 Q74.7716,513.4429 75.4123,513.5992 Q76.0685,513.7554 76.631,514.0523 L76.631,516.771 Q76.006,516.1929 75.4123,515.9273 Q74.8185,515.646 74.1935,515.646 Q72.8498,515.646 72.1623,516.7242 Q71.4748,517.7867 71.4748,519.8804 Q71.4748,521.9742 72.1623,523.0523 Q72.8498,524.1148 74.1935,524.1148 Q74.8185,524.1148 75.4123,523.8492 Q76.006,523.5679 76.631,522.9898 L76.631,525.7085 Z " fill="#000000"/><text fill="#000000" font-family="sans-serif" font-size="14" lengthAdjust="spacing" textLength="155.1334" x="90.0316" y="525.4999">ExternalBookingService</text><line style="stroke:#181818;stroke-width:0.5;" x1="49" x2="257.8273" y1="536.0679" y2="536.0679"/><line style="stroke:#181818;stroke-width:0.5;" x1="49" x2="257.8273" y1="544.0679" y2="544.0679"/><ellipse cx="59" cy="559.1019" fill="#84BE84" rx="3" ry="3" style="stroke:#038048;stroke-width:1.0;"/><text fill="#000000" font-family="sans-serif" font-size="14" lengthAdjust="spacing" textLength="184.8273" x="68" y="563.0339">fetchBookingHotels(): String</text></g><!--class ExternalTripadvisorService--><g id="elem_ExternalTripadvisorService"><rect codeLine="24" fill="#F1F1F1" height="67.0679" id="ExternalTripadvisorService" rx="2.5" ry="2.5" style="stroke:#181818;stroke-width:0.5;" width="230.3712" x="385.5" y="504.0679"/><ellipse cx="411.1623" cy="520.0679" fill="#ADD1B2" rx="11" ry="11" style="stroke:#181818;stroke-width:1.0;"/><path d="M414.131,525.7085 Q413.5529,526.0054 412.9123,526.146 Q412.2716,526.3023 411.5685,526.3023 Q409.0685,526.3023 407.7404,524.6617 Q406.4279,523.0054 406.4279,519.8804 Q406.4279,516.7554 407.7404,515.0992 Q409.0685,513.4429 411.5685,513.4429 Q412.2716,513.4429 412.9123,513.5992 Q413.5685,513.7554 414.131,514.0523 L414.131,516.771 Q413.506,516.1929 412.9123,515.9273 Q412.3185,515.646 411.6935,515.646 Q410.3498,515.646 409.6623,516.7242 Q408.9748,517.7867 408.9748,519.8804 Q408.9748,521.9742 409.6623,523.0523 Q410.3498,524.1148 411.6935,524.1148 Q412.3185,524.1148 412.9123,523.8492 Q413.506,523.5679 414.131,522.9898 L414.131,525.7085 Z " fill="#000000"/><text fill="#000000" font-family="sans-serif" font-size="14" lengthAdjust="spacing" textLength="174.6773" x="427.5316" y="525.4999">ExternalTripadvisorService</text><line style="stroke:#181818;stroke-width:0.5;" x1="386.5" x2="614.8712" y1="536.0679" y2="536.0679"/><line style="stroke:#181818;stroke-width:0.5;" x1="386.5" x2="614.8712" y1="544.0679" y2="544.0679"/><ellipse cx="396.5" cy="559.1019" fill="#84BE84" rx="3" ry="3" style="stroke:#038048;stroke-width:1.0;"/><text fill="#000000" font-family="sans-serif" font-size="14" lengthAdjust="spacing" textLength="204.3712" x="405.5" y="563.0339">fetchTripadvisorHotels(): String</text></g><!--class HotelController--><g id="elem_HotelController"><rect codeLine="29" fill="#F1F1F1" height="86.1358" id="HotelController" rx="2.5" ry="2.5" style="stroke:#181818;stroke-width:0.5;" width="336.4209" x="318.5" y="47.0679"/><ellipse cx="431.6686" cy="63.0679" fill="#ADD1B2" rx="11" ry="11" style="stroke:#181818;stroke-width:1.0;"/><path d="M434.6374,68.7085 Q434.0593,69.0054 433.4186,69.146 Q432.778,69.3023 432.0749,69.3023 Q429.5749,69.3023 428.2468,67.6617 Q426.9343,66.0054 426.9343,62.8804 Q426.9343,59.7554 428.2468,58.0992 Q429.5749,56.4429 432.0749,56.4429 Q432.778,56.4429 433.4186,56.5992 Q434.0749,56.7554 434.6374,57.0523 L434.6374,59.771 Q434.0124,59.1929 433.4186,58.9273 Q432.8249,58.646 432.1999,58.646 Q430.8561,58.646 430.1686,59.7242 Q429.4811,60.7867 429.4811,62.8804 Q429.4811,64.9742 430.1686,66.0523 Q430.8561,67.1148 432.1999,67.1148 Q432.8249,67.1148 433.4186,66.8492 Q434.0124,66.5679 434.6374,65.9898 L434.6374,68.7085 Z " fill="#000000"/><text fill="#000000" font-family="sans-serif" font-size="14" lengthAdjust="spacing" textLength="101.5836" x="452.1686" y="68.4999">HotelController</text><line style="stroke:#181818;stroke-width:0.5;" x1="319.5" x2="653.9209" y1="79.0679" y2="79.0679"/><rect fill="none" height="6" style="stroke:#C82930;stroke-width:1.0;" width="6" x="326.5" y="91.1019"/><text fill="#000000" font-family="sans-serif" font-size="14" lengthAdjust="spacing" textLength="176.6933" x="338.5" y="98.0339">hotelFactory : HotelFactory</text><line style="stroke:#181818;stroke-width:0.5;" x1="319.5" x2="653.9209" y1="106.1358" y2="106.1358"/><ellipse cx="329.5" cy="121.1698" fill="#84BE84" rx="3" ry="3" style="stroke:#038048;stroke-width:1.0;"/><text fill="#000000" font-family="sans-serif" font-size="14" lengthAdjust="spacing" textLength="310.4209" x="338.5" y="125.1018">getAvailableHotels(String hotelProvider): String</text></g><!--class HotelFactory--><g id="elem_HotelFactory"><rect codeLine="34" fill="#F1F1F1" height="105.2038" id="HotelFactory" rx="2.5" ry="2.5" style="stroke:#181818;stroke-width:0.5;" width="361.5228" x="305.5" y="193.0679"/><ellipse cx="440.1656" cy="209.0679" fill="#ADD1B2" rx="11" ry="11" style="stroke:#181818;stroke-width:1.0;"/><path d="M443.1343,214.7085 Q442.5562,215.0054 441.9156,215.146 Q441.2749,215.3023 440.5718,215.3023 Q438.0718,215.3023 436.7437,213.6617 Q435.4312,212.0054 435.4312,208.8804 Q435.4312,205.7554 436.7437,204.0992 Q438.0718,202.4429 440.5718,202.4429 Q441.2749,202.4429 441.9156,202.5992 Q442.5718,202.7554 443.1343,203.0523 L443.1343,205.771 Q442.5093,205.1929 441.9156,204.9273 Q441.3218,204.646 440.6968,204.646 Q439.3531,204.646 438.6656,205.7242 Q437.9781,206.7867 437.9781,208.8804 Q437.9781,210.9742 438.6656,212.0523 Q439.3531,213.1148 440.6968,213.1148 Q441.3218,213.1148 441.9156,212.8492 Q442.5093,212.5679 443.1343,211.9898 L443.1343,214.7085 Z " fill="#000000"/><text fill="#000000" font-family="sans-serif" font-size="14" lengthAdjust="spacing" textLength="83.6917" x="460.6656" y="214.4999">HotelFactory</text><line style="stroke:#181818;stroke-width:0.5;" x1="306.5" x2="666.0228" y1="225.0679" y2="225.0679"/><rect fill="none" height="6" style="stroke:#C82930;stroke-width:1.0;" width="6" x="313.5" y="237.1019"/><text fill="#000000" font-family="sans-serif" font-size="14" lengthAdjust="spacing" textLength="267.161" x="325.5" y="244.0339">bookingApiAdapter : BookingApiAdapter</text><rect fill="none" height="6" style="stroke:#C82930;stroke-width:1.0;" width="6" x="313.5" y="256.1698"/><text fill="#000000" font-family="sans-serif" font-size="14" lengthAdjust="spacing" textLength="304.0089" x="325.5" y="263.1018">tripadvisorApiAdapter : TripadvisorApiAdapter</text><line style="stroke:#181818;stroke-width:0.5;" x1="306.5" x2="666.0228" y1="271.2038" y2="271.2038"/><ellipse cx="316.5" cy="286.2377" fill="#84BE84" rx="3" ry="3" style="stroke:#038048;stroke-width:1.0;"/><text fill="#000000" font-family="sans-serif" font-size="14" lengthAdjust="spacing" textLength="335.5228" x="325.5" y="290.1697">getAdapter(String hotelProvider) : HotelApiAdapter</text></g><!--reverse link HotelApiAdapter to BookingApiAdapter--><g id="link_HotelApiAdapter_BookingApiAdapter"><path codeLine="40" d="M153.5,297.3079 C153.5,320.3579 153.5,333.0879 153.5,357.9179 " fill="none" id="HotelApiAdapter-backto-BookingApiAdapter" style="stroke:#181818;stroke-width:1.0;stroke-dasharray:7.0,7.0;"/><polygon fill="none" points="153.5,279.3079,147.5,297.3079,159.5,297.3079,153.5,279.3079" style="stroke:#181818;stroke-width:1.0;"/></g><!--reverse link HotelApiAdapter to TripadvisorApiAdapter--><g id="link_HotelApiAdapter_TripadvisorApiAdapter"><path codeLine="41" d="M205.5,297.1279 C205.5,319.9679 205.5,328.0679 205.5,328.0679 C205.5,328.0679 445.5,328.0679 445.5,328.0679 C445.5,328.0679 445.5,342.0379 445.5,357.7579 " fill="none" id="HotelApiAdapter-backto-TripadvisorApiAdapter" style="stroke:#181818;stroke-width:1.0;stroke-dasharray:7.0,7.0;"/><polygon fill="none" points="205.5,279.1279,199.5,297.1279,211.5,297.1279,205.5,279.1279" style="stroke:#181818;stroke-width:1.0;"/></g><!--link BookingApiAdapter to ExternalBookingService--><g id="link_BookingApiAdapter_ExternalBookingService"><path codeLine="43" d="M153.5,444.2579 C153.5,463.4679 153.5,479.7579 153.5,497.7379 " fill="none" id="BookingApiAdapter-to-ExternalBookingService" style="stroke:#181818;stroke-width:1.0;"/><polygon fill="#181818" points="153.5,503.7379,157.5,494.7379,153.5,498.7379,149.5,494.7379,153.5,503.7379" style="stroke:#181818;stroke-width:1.0;"/><rect fill="none" height="6" style="stroke:#C82930;stroke-width:1.0;" width="6" x="49.5" y="462.3509"/><text fill="#000000" font-family="sans-serif" font-size="13" lengthAdjust="spacing" textLength="93.4181" x="59.5" y="469.8949">bookingService</text></g><!--link TripadvisorApiAdapter to ExternalTripadvisorService--><g id="link_TripadvisorApiAdapter_ExternalTripadvisorService"><path codeLine="44" d="M500.5,444.2579 C500.5,463.4679 500.5,479.7579 500.5,497.7379 " fill="none" id="TripadvisorApiAdapter-to-ExternalTripadvisorService" style="stroke:#181818;stroke-width:1.0;"/><polygon fill="#181818" points="500.5,503.7379,504.5,494.7379,500.5,498.7379,496.5,494.7379,500.5,503.7379" style="stroke:#181818;stroke-width:1.0;"/><rect fill="none" height="6" style="stroke:#C82930;stroke-width:1.0;" width="6" x="380.5" y="462.3509"/><text fill="#000000" font-family="sans-serif" font-size="13" lengthAdjust="spacing" textLength="109.4861" x="390.5" y="469.8949">tripadvisorService</text></g><!--link HotelFactory to BookingApiAdapter--><g id="link_HotelFactory_BookingApiAdapter"><path codeLine="46" d="M305.48,289.0679 C289.23,289.0679 278.75,289.0679 278.75,289.0679 C278.75,289.0679 278.75,320.2479 278.75,351.7679 " fill="none" id="HotelFactory-to-BookingApiAdapter" style="stroke:#181818;stroke-width:1.0;"/><polygon fill="#181818" points="278.75,357.7679,282.75,348.7679,278.75,352.7679,274.75,348.7679,278.75,357.7679" style="stroke:#181818;stroke-width:1.0;"/></g><!--link HotelFactory to TripadvisorApiAdapter--><g id="link_HotelFactory_TripadvisorApiAdapter"><path codeLine="47" d="M555.5,298.2179 C555.5,317.6879 555.5,333.5079 555.5,352.0279 " fill="none" id="HotelFactory-to-TripadvisorApiAdapter" style="stroke:#181818;stroke-width:1.0;"/><polygon fill="#181818" points="555.5,358.0279,559.5,349.0279,555.5,353.0279,551.5,349.0279,555.5,358.0279" style="stroke:#181818;stroke-width:1.0;"/></g><!--link HotelController to HotelFactory--><g id="link_HotelController_HotelFactory"><path codeLine="48" d="M486.5,133.3879 C486.5,151.8079 486.5,167.4579 486.5,186.8079 " fill="none" id="HotelController-to-HotelFactory" style="stroke:#181818;stroke-width:1.0;"/><polygon fill="#181818" points="486.5,192.8079,490.5,183.8079,486.5,187.8079,482.5,183.8079,486.5,192.8079" style="stroke:#181818;stroke-width:1.0;"/><rect fill="none" height="6" style="stroke:#C82930;stroke-width:1.0;" width="6" x="399.5" y="151.4509"/><text fill="#000000" font-family="sans-serif" font-size="13" lengthAdjust="spacing" textLength="76.1151" x="409.5" y="158.9949">hotelFactory</text></g><!--SRC=[bLD1ReCm4BppYZssgfm7eAeIgLfnQwJm0GSSiEhObbcXHct_NXE3iB7JfbmGxEpiZ3sB70M3eg4QcO4THVkIGA1Ko4GFRxgZWiciV-TIKqDF8BXaUDOCbC5EPHdOXqlRTQGrSss5vZFXfmFOvm6E3ElEyTxTvx17msLxANyxL2retyDMAJki3KWc3W87LzmpCt0xBeUNZr4m5TkWyE-XbU6QDWFlbKaFnWKG3w-Yueq2F0Lf8uk4cMgg_stfkhYOrCFS8FK2ULOIZH8YFAPkBBtI6fKvsmCglS_bI5g6nK2ve0V1fd5kbclV6JNmXfbVlFcyYNXuLvZ7UKfUQj2IJ4Eet_rBwvwDhtgjW_LwF7vjDWc1ILXQL1Ql2o5FrzAK0matA4i7twUeKiadyJvCxkPR6IckEFCXQLVhX8t8CemMyQEM_G00]--></g></svg>