<svg xmlns="http://www.w3.org/2000/svg" xmlns:xlink="http://www.w3.org/1999/xlink" contentStyleType="text/css" height="489px" preserveAspectRatio="none" style="width:592px;height:489px;background:#FFFFFF;" version="1.1" viewBox="0 0 592 489" width="592px" zoomAndPan="magnify"><title>Adapter Pattern - Hotels Ophalen</title><defs/><g><text fill="#000000" font-family="sans-serif" font-size="14" font-weight="bold" lengthAdjust="spacing" textLength="243.0449" x="167.6449" y="23.5352">Adapter Pattern - Hotels Ophalen</text><!--class HotelApiAdapter--><g id="elem_HotelApiAdapter"><rect codeLine="4" fill="#F1F1F1" height="64.4883" id="HotelApiAdapter" rx="2.5" ry="2.5" style="stroke:#181818;stroke-width:0.5;" width="161.085" x="18.46" y="168.9783"/><ellipse cx="41.0283" cy="184.9783" fill="#B4A7E5" rx="11" ry="11" style="stroke:#181818;stroke-width:1.0;"/><path d="M36.956,180.7434 L36.956,178.5852 L44.3354,178.5852 L44.3354,180.7434 L41.8701,180.7434 L41.8701,188.8201 L44.3354,188.8201 L44.3354,190.9783 L36.956,190.9783 L36.956,188.8201 L39.4213,188.8201 L39.4213,180.7434 Z " fill="#000000"/><text fill="#000000" font-family="sans-serif" font-size="14" font-style="italic" lengthAdjust="spacing" textLength="112.2666" x="56.7101" y="190.2693">HotelApiAdapter</text><line style="stroke:#181818;stroke-width:0.5;" x1="19.46" x2="178.545" y1="200.9783" y2="200.9783"/><line style="stroke:#181818;stroke-width:0.5;" x1="19.46" x2="178.545" y1="208.9783" y2="208.9783"/><ellipse cx="29.46" cy="222.7224" fill="#84BE84" rx="3" ry="3" style="stroke:#038048;stroke-width:1.0;"/><text fill="#000000" font-family="sans-serif" font-size="14" lengthAdjust="spacing" textLength="135.085" x="38.46" y="226.5134">fetchHotels(): String</text></g><!--class BookingApiAdapter--><g id="elem_BookingApiAdapter"><rect codeLine="8" fill="#F1F1F1" height="64.4883" id="BookingApiAdapter" rx="2.5" ry="2.5" style="stroke:#181818;stroke-width:0.5;" width="163.1953" x="36.4" y="293.4583"/><ellipse cx="51.4" cy="309.4583" fill="#ADD1B2" rx="11" ry="11" style="stroke:#181818;stroke-width:1.0;"/><path d="M54.3731,315.1013 Q53.7921,315.4002 53.1529,315.5496 Q52.5138,315.699 51.8082,315.699 Q49.3014,315.699 47.9815,314.0471 Q46.6617,312.3953 46.6617,309.2742 Q46.6617,306.1448 47.9815,304.4929 Q49.3014,302.8411 51.8082,302.8411 Q52.5138,302.8411 53.1612,302.9905 Q53.8087,303.1399 54.3731,303.4387 L54.3731,306.1614 Q53.7423,305.5804 53.1488,305.3106 Q52.5553,305.0408 51.9244,305.0408 Q50.5797,305.0408 49.8949,306.1075 Q49.2101,307.1741 49.2101,309.2742 Q49.2101,311.366 49.8949,312.4326 Q50.5797,313.4993 51.9244,313.4993 Q52.5553,313.4993 53.1488,313.2295 Q53.7423,312.9597 54.3731,312.3787 Z " fill="#000000"/><text fill="#000000" font-family="sans-serif" font-size="14" lengthAdjust="spacing" textLength="131.1953" x="65.4" y="314.7493">BookingApiAdapter</text><line style="stroke:#181818;stroke-width:0.5;" x1="37.4" x2="198.5953" y1="325.4583" y2="325.4583"/><line style="stroke:#181818;stroke-width:0.5;" x1="37.4" x2="198.5953" y1="333.4583" y2="333.4583"/><ellipse cx="47.4" cy="347.2024" fill="#84BE84" rx="3" ry="3" style="stroke:#038048;stroke-width:1.0;"/><text fill="#000000" font-family="sans-serif" font-size="14" lengthAdjust="spacing" textLength="135.085" x="56.4" y="350.9934">fetchHotels(): String</text></g><!--class TripadvisorApiAdapter--><g id="elem_TripadvisorApiAdapter"><rect codeLine="12" fill="#F1F1F1" height="64.4883" id="TripadvisorApiAdapter" rx="2.5" ry="2.5" style="stroke:#181818;stroke-width:0.5;" width="185.0361" x="297.48" y="293.4583"/><ellipse cx="312.48" cy="309.4583" fill="#ADD1B2" rx="11" ry="11" style="stroke:#181818;stroke-width:1.0;"/><path d="M315.4531,315.1013 Q314.8721,315.4002 314.2329,315.5496 Q313.5938,315.699 312.8882,315.699 Q310.3814,315.699 309.0615,314.0471 Q307.7417,312.3953 307.7417,309.2742 Q307.7417,306.1448 309.0615,304.4929 Q310.3814,302.8411 312.8882,302.8411 Q313.5938,302.8411 314.2412,302.9905 Q314.8887,303.1399 315.4531,303.4387 L315.4531,306.1614 Q314.8223,305.5804 314.2288,305.3106 Q313.6353,305.0408 313.0044,305.0408 Q311.6597,305.0408 310.9749,306.1075 Q310.2901,307.1741 310.2901,309.2742 Q310.2901,311.366 310.9749,312.4326 Q311.6597,313.4993 313.0044,313.4993 Q313.6353,313.4993 314.2288,313.2295 Q314.8223,312.9597 315.4531,312.3787 Z " fill="#000000"/><text fill="#000000" font-family="sans-serif" font-size="14" lengthAdjust="spacing" textLength="153.0361" x="326.48" y="314.7493">TripadvisorApiAdapter</text><line style="stroke:#181818;stroke-width:0.5;" x1="298.48" x2="481.5161" y1="325.4583" y2="325.4583"/><line style="stroke:#181818;stroke-width:0.5;" x1="298.48" x2="481.5161" y1="333.4583" y2="333.4583"/><ellipse cx="308.48" cy="347.2024" fill="#84BE84" rx="3" ry="3" style="stroke:#038048;stroke-width:1.0;"/><text fill="#000000" font-family="sans-serif" font-size="14" lengthAdjust="spacing" textLength="135.085" x="317.48" y="350.9934">fetchHotels(): String</text></g><!--class ExternalBookingService--><g id="elem_ExternalBookingService"><rect codeLine="17" fill="#F1F1F1" height="64.4883" id="ExternalBookingService" rx="2.5" ry="2.5" style="stroke:#181818;stroke-width:0.5;" width="215.9844" x="10.01" y="417.9483"/><ellipse cx="36.8664" cy="433.9483" fill="#ADD1B2" rx="11" ry="11" style="stroke:#181818;stroke-width:1.0;"/><path d="M39.8396,439.5913 Q39.2585,439.8902 38.6194,440.0396 Q37.9802,440.189 37.2746,440.189 Q34.7678,440.189 33.448,438.5371 Q32.1282,436.8853 32.1282,433.7642 Q32.1282,430.6348 33.448,428.9829 Q34.7678,427.3311 37.2746,427.3311 Q37.9802,427.3311 38.6277,427.4805 Q39.2751,427.6299 39.8396,427.9288 L39.8396,430.6514 Q39.2087,430.0704 38.6152,429.8006 Q38.0217,429.5308 37.3909,429.5308 Q36.0461,429.5308 35.3613,430.5975 Q34.6765,431.6641 34.6765,433.7642 Q34.6765,435.856 35.3613,436.9226 Q36.0461,437.9893 37.3909,437.9893 Q38.0217,437.9893 38.6152,437.7195 Q39.2087,437.4497 39.8396,436.8687 Z " fill="#000000"/><text fill="#000000" font-family="sans-serif" font-size="14" lengthAdjust="spacing" textLength="157.6367" x="53.5012" y="439.2393">ExternalBookingService</text><line style="stroke:#181818;stroke-width:0.5;" x1="11.01" x2="224.9944" y1="449.9483" y2="449.9483"/><line style="stroke:#181818;stroke-width:0.5;" x1="11.01" x2="224.9944" y1="457.9483" y2="457.9483"/><ellipse cx="21.01" cy="471.6924" fill="#84BE84" rx="3" ry="3" style="stroke:#038048;stroke-width:1.0;"/><text fill="#000000" font-family="sans-serif" font-size="14" lengthAdjust="spacing" textLength="189.9844" x="30.01" y="475.4834">fetchBookingHotels(): String</text></g><!--class ExternalTripadvisorService--><g id="elem_ExternalTripadvisorService"><rect codeLine="21" fill="#F1F1F1" height="64.4883" id="ExternalTripadvisorService" rx="2.5" ry="2.5" style="stroke:#181818;stroke-width:0.5;" width="237.8252" x="271.09" y="417.9483"/><ellipse cx="297.9464" cy="433.9483" fill="#ADD1B2" rx="11" ry="11" style="stroke:#181818;stroke-width:1.0;"/><path d="M300.9196,439.5913 Q300.3385,439.8902 299.6994,440.0396 Q299.0602,440.189 298.3546,440.189 Q295.8478,440.189 294.528,438.5371 Q293.2082,436.8853 293.2082,433.7642 Q293.2082,430.6348 294.528,428.9829 Q295.8478,427.3311 298.3546,427.3311 Q299.0602,427.3311 299.7077,427.4805 Q300.3551,427.6299 300.9196,427.9288 L300.9196,430.6514 Q300.2887,430.0704 299.6952,429.8006 Q299.1017,429.5308 298.4709,429.5308 Q297.1261,429.5308 296.4413,430.5975 Q295.7565,431.6641 295.7565,433.7642 Q295.7565,435.856 296.4413,436.9226 Q297.1261,437.9893 298.4709,437.9893 Q299.1017,437.9893 299.6952,437.7195 Q300.2887,437.4497 300.9196,436.8687 Z " fill="#000000"/><text fill="#000000" font-family="sans-serif" font-size="14" lengthAdjust="spacing" textLength="179.4775" x="314.5812" y="439.2393">ExternalTripadvisorService</text><line style="stroke:#181818;stroke-width:0.5;" x1="272.09" x2="507.9152" y1="449.9483" y2="449.9483"/><line style="stroke:#181818;stroke-width:0.5;" x1="272.09" x2="507.9152" y1="457.9483" y2="457.9483"/><ellipse cx="282.09" cy="471.6924" fill="#84BE84" rx="3" ry="3" style="stroke:#038048;stroke-width:1.0;"/><text fill="#000000" font-family="sans-serif" font-size="14" lengthAdjust="spacing" textLength="211.8252" x="291.09" y="475.4834">fetchTripadvisorHotels(): String</text></g><!--class HotelController--><g id="elem_HotelController"><rect codeLine="26" fill="#F1F1F1" height="64.4883" id="HotelController" rx="2.5" ry="2.5" style="stroke:#181818;stroke-width:0.5;" width="344.3975" x="227.8" y="44.4883"/><ellipse cx="343.6828" cy="60.4883" fill="#ADD1B2" rx="11" ry="11" style="stroke:#181818;stroke-width:1.0;"/><path d="M346.656,66.1313 Q346.0749,66.4302 345.4357,66.5796 Q344.7966,66.729 344.091,66.729 Q341.5842,66.729 340.2644,65.0771 Q338.9445,63.4253 338.9445,60.3042 Q338.9445,57.1748 340.2644,55.5229 Q341.5842,53.8711 344.091,53.8711 Q344.7966,53.8711 345.444,54.0205 Q346.0915,54.1699 346.656,54.4688 L346.656,57.1914 Q346.0251,56.6104 345.4316,56.3406 Q344.8381,56.0708 344.2072,56.0708 Q342.8625,56.0708 342.1777,57.1375 Q341.4929,58.2041 341.4929,60.3042 Q341.4929,62.396 342.1777,63.4626 Q342.8625,64.5293 344.2072,64.5293 Q344.8381,64.5293 345.4316,64.2595 Q346.0251,63.9897 346.656,63.4087 Z " fill="#000000"/><text fill="#000000" font-family="sans-serif" font-size="14" lengthAdjust="spacing" textLength="104.1318" x="364.1828" y="65.7793">HotelController</text><line style="stroke:#181818;stroke-width:0.5;" x1="228.8" x2="571.1975" y1="76.4883" y2="76.4883"/><line style="stroke:#181818;stroke-width:0.5;" x1="228.8" x2="571.1975" y1="84.4883" y2="84.4883"/><ellipse cx="238.8" cy="98.2324" fill="#84BE84" rx="3" ry="3" style="stroke:#038048;stroke-width:1.0;"/><text fill="#000000" font-family="sans-serif" font-size="14" lengthAdjust="spacing" textLength="318.3975" x="247.8" y="102.0234">getAvailableHotels(String hotelProvider): String</text></g><!--class HotelFactory--><g id="elem_HotelFactory"><rect codeLine="30" fill="#F1F1F1" height="64.4883" id="HotelFactory" rx="2.5" ry="2.5" style="stroke:#181818;stroke-width:0.5;" width="370.6748" x="214.66" y="168.9783"/><ellipse cx="353.1185" cy="184.9783" fill="#ADD1B2" rx="11" ry="11" style="stroke:#181818;stroke-width:1.0;"/><path d="M356.0916,190.6213 Q355.5106,190.9202 354.8714,191.0696 Q354.2323,191.219 353.5267,191.219 Q351.0199,191.219 349.7,189.5671 Q348.3802,187.9153 348.3802,184.7942 Q348.3802,181.6648 349.7,180.0129 Q351.0199,178.3611 353.5267,178.3611 Q354.2323,178.3611 354.8797,178.5105 Q355.5272,178.6599 356.0916,178.9588 L356.0916,181.6814 Q355.4608,181.1004 354.8673,180.8306 Q354.2738,180.5608 353.6429,180.5608 Q352.2982,180.5608 351.6134,181.6275 Q350.9286,182.6941 350.9286,184.7942 Q350.9286,186.886 351.6134,187.9526 Q352.2982,189.0193 353.6429,189.0193 Q354.2738,189.0193 354.8673,188.7495 Q355.4608,188.4797 356.0916,187.8987 Z " fill="#000000"/><text fill="#000000" font-family="sans-serif" font-size="14" lengthAdjust="spacing" textLength="85.2578" x="373.6185" y="190.2693">HotelFactory</text><line style="stroke:#181818;stroke-width:0.5;" x1="215.66" x2="584.3348" y1="200.9783" y2="200.9783"/><line style="stroke:#181818;stroke-width:0.5;" x1="215.66" x2="584.3348" y1="208.9783" y2="208.9783"/><ellipse cx="225.66" cy="222.7224" fill="#84BE84" rx="3" ry="3" style="stroke:#038048;stroke-width:1.0;"/><text fill="#000000" font-family="sans-serif" font-size="14" lengthAdjust="spacing" textLength="344.6748" x="234.66" y="226.5134">getAdapter(String hotelProvider) : HotelApiAdapter</text></g><!--reverse link HotelApiAdapter to BookingApiAdapter--><g id="link_HotelApiAdapter_BookingApiAdapter"><path codeLine="34" d="M107.97,251.9283 C107.97,270.2183 107.97,274.9583 107.97,293.2183 " fill="none" id="HotelApiAdapter-backto-BookingApiAdapter" style="stroke:#181818;stroke-width:1.0;stroke-dasharray:7.0,7.0;"/><polygon fill="none" points="107.97,233.9283,101.97,251.9283,113.97,251.9283,107.97,233.9283" style="stroke:#181818;stroke-width:1.0;"/></g><!--reverse link HotelApiAdapter to TripadvisorApiAdapter--><g id="link_HotelApiAdapter_TripadvisorApiAdapter"><path codeLine="35" d="M197.84,201.4383 C213.49,201.4383 207.13,201.4383 207.13,201.4383 C207.13,201.4383 207.13,315.4383 207.13,315.4383 C207.13,315.4383 251.96,315.4383 297.23,315.4383 " fill="none" id="HotelApiAdapter-backto-TripadvisorApiAdapter" style="stroke:#181818;stroke-width:1.0;stroke-dasharray:7.0,7.0;"/><polygon fill="none" points="179.84,201.4383,197.84,207.4383,197.84,195.4383,179.84,201.4383" style="stroke:#181818;stroke-width:1.0;"/></g><!--link BookingApiAdapter to ExternalBookingService--><g id="link_BookingApiAdapter_ExternalBookingService"><path codeLine="37" d="M118,358.4183 C118,376.7083 118,393.4383 118,411.7083 " fill="none" id="BookingApiAdapter-to-ExternalBookingService" style="stroke:#181818;stroke-width:1.0;"/><polygon fill="#181818" points="118,417.7083,122,408.7083,118,412.7083,114,408.7083,118,417.7083" style="stroke:#181818;stroke-width:1.0;"/><text fill="#000000" font-family="sans-serif" font-size="13" lengthAdjust="spacing" textLength="110.6777" x="7" y="384.6266">--bookingService</text></g><!--link TripadvisorApiAdapter to ExternalTripadvisorService--><g id="link_TripadvisorApiAdapter_ExternalTripadvisorService"><path codeLine="38" d="M390,358.4183 C390,376.7083 390,393.4383 390,411.7083 " fill="none" id="TripadvisorApiAdapter-to-ExternalTripadvisorService" style="stroke:#181818;stroke-width:1.0;"/><polygon fill="#181818" points="390,417.7083,394,408.7083,390,412.7083,386,408.7083,390,417.7083" style="stroke:#181818;stroke-width:1.0;"/><text fill="#000000" font-family="sans-serif" font-size="13" lengthAdjust="spacing" textLength="126.896" x="263" y="384.6266">--tripadvisorService</text></g><!--link HotelFactory to BookingApiAdapter--><g id="link_HotelFactory_BookingApiAdapter"><path codeLine="40" d="M220.33,233.9483 C220.33,273.9683 220.33,336.4383 220.33,336.4383 C220.33,336.4383 217.78,336.4383 205.62,336.4383 " fill="none" id="HotelFactory-to-BookingApiAdapter" style="stroke:#181818;stroke-width:1.0;"/><polygon fill="#181818" points="199.62,336.4383,208.62,340.4383,204.62,336.4383,208.62,332.4383,199.62,336.4383" style="stroke:#181818;stroke-width:1.0;"/></g><!--link HotelFactory to TripadvisorApiAdapter--><g id="link_HotelFactory_TripadvisorApiAdapter"><path codeLine="41" d="M390,233.9283 C390,252.2183 390,268.9583 390,287.2183 " fill="none" id="HotelFactory-to-TripadvisorApiAdapter" style="stroke:#181818;stroke-width:1.0;"/><polygon fill="#181818" points="390,293.2183,394,284.2183,390,288.2183,386,284.2183,390,293.2183" style="stroke:#181818;stroke-width:1.0;"/></g><!--link HotelController to HotelFactory--><g id="link_HotelController_HotelFactory"><path codeLine="42" d="M400,109.4383 C400,127.7383 400,144.4683 400,162.7283 " fill="none" id="HotelController-to-HotelFactory" style="stroke:#181818;stroke-width:1.0;"/><polygon fill="#181818" points="400,168.7283,404,159.7283,400,163.7283,396,159.7283,400,168.7283" style="stroke:#181818;stroke-width:1.0;"/><text fill="#000000" font-family="sans-serif" font-size="13" lengthAdjust="spacing" textLength="92.7266" x="307" y="135.6466">--hotelFactory</text></g><!--SRC=[fP9TJeGm4CVVUufvr1Zs0CIOeD7uvYRh1MPX5XfhsvG9SQFUtLB052X6OnzAElEV7_F5aXL1KQ5bSh17zXyD6JmQ9jN2asrGaHRjYzGM7Rw2afhuR0cCuyO80Vv8xQDEMD8GLbWv0T-3tvyhE16NpO2zkCpXm4xgEhW_mnskKc7Rmgqn_d_rlpdFJbgiEjaQztUMY43tRtrRK8s97SXrqbVxJPfGet-Bk0P66Mv28yqlKWsIEwFP6QNcrTR4HOTIuL7HI1emqFIllJEThCZza7Q8Ui2IZJiloKDtqqJ8bviniPSBS_snswtddvObnol4Udkox6PhXBbt7cScaTwQc96OMi_XbNciR-fOpzYeBPQawreEjbVEGliKciWWlW00]--></g></svg>