<svg xmlns="http://www.w3.org/2000/svg" xmlns:xlink="http://www.w3.org/1999/xlink" contentStyleType="text/css" height="564px" preserveAspectRatio="none" style="width:690px;height:564px;background:#FFFFFF;" version="1.1" viewBox="0 0 690 564" width="690px" zoomAndPan="magnify"><title>Adapter Pattern - Hotels Ophalen</title><defs/><g><text fill="#000000" font-family="sans-serif" font-size="14" font-weight="bold" lengthAdjust="spacing" textLength="243.0449" x="216.6249" y="23.5352">Adapter Pattern - Hotels Ophalen</text><!--class HotelApiAdapter--><g id="elem_HotelApiAdapter"><rect codeLine="4" fill="#F1F1F1" height="64.4883" id="HotelApiAdapter" rx="2.5" ry="2.5" style="stroke:#181818;stroke-width:0.5;" width="161.085" x="103.42" y="201.9583"/><ellipse cx="125.9883" cy="217.9583" fill="#B4A7E5" rx="11" ry="11" style="stroke:#181818;stroke-width:1.0;"/><path d="M121.916,213.7234 L121.916,211.5652 L129.2954,211.5652 L129.2954,213.7234 L126.8301,213.7234 L126.8301,221.8001 L129.2954,221.8001 L129.2954,223.9583 L121.916,223.9583 L121.916,221.8001 L124.3813,221.8001 L124.3813,213.7234 Z " fill="#000000"/><text fill="#000000" font-family="sans-serif" font-size="14" font-style="italic" lengthAdjust="spacing" textLength="112.2666" x="141.6701" y="223.2493">HotelApiAdapter</text><line style="stroke:#181818;stroke-width:0.5;" x1="104.42" x2="263.505" y1="233.9583" y2="233.9583"/><line style="stroke:#181818;stroke-width:0.5;" x1="104.42" x2="263.505" y1="241.9583" y2="241.9583"/><ellipse cx="114.42" cy="255.7024" fill="#84BE84" rx="3" ry="3" style="stroke:#038048;stroke-width:1.0;"/><text fill="#000000" font-family="sans-serif" font-size="14" lengthAdjust="spacing" textLength="135.085" x="123.42" y="259.4934">fetchHotels(): String</text></g><!--class BookingApiAdapter--><g id="elem_BookingApiAdapter"><rect codeLine="9" fill="#F1F1F1" height="80.9766" id="BookingApiAdapter" rx="2.5" ry="2.5" style="stroke:#181818;stroke-width:0.5;" width="299.916" x="7" y="342.9283"/><ellipse cx="87.1104" cy="358.9283" fill="#ADD1B2" rx="11" ry="11" style="stroke:#181818;stroke-width:1.0;"/><path d="M90.0835,364.5713 Q89.5024,364.8702 88.8633,365.0196 Q88.2241,365.169 87.5186,365.169 Q85.0117,365.169 83.6919,363.5171 Q82.3721,361.8653 82.3721,358.7442 Q82.3721,355.6148 83.6919,353.9629 Q85.0117,352.3111 87.5186,352.3111 Q88.2241,352.3111 88.8716,352.4605 Q89.519,352.6099 90.0835,352.9087 L90.0835,355.6314 Q89.4526,355.0504 88.8591,354.7806 Q88.2656,354.5108 87.6348,354.5108 Q86.29,354.5108 85.6052,355.5775 Q84.9204,356.6441 84.9204,358.7442 Q84.9204,360.836 85.6052,361.9026 Q86.29,362.9693 87.6348,362.9693 Q88.2656,362.9693 88.8591,362.6995 Q89.4526,362.4297 90.0835,361.8487 Z " fill="#000000"/><text fill="#000000" font-family="sans-serif" font-size="14" lengthAdjust="spacing" textLength="131.1953" x="107.6104" y="364.2193">BookingApiAdapter</text><line style="stroke:#181818;stroke-width:0.5;" x1="8" x2="305.916" y1="374.9283" y2="374.9283"/><rect fill="none" height="6" style="stroke:#C82930;stroke-width:1.0;" width="6" x="15" y="385.6724"/><text fill="#000000" font-family="sans-serif" font-size="14" lengthAdjust="spacing" textLength="273.916" x="27" y="392.4634">bookingService : ExternalBookingService</text><line style="stroke:#181818;stroke-width:0.5;" x1="8" x2="305.916" y1="399.4166" y2="399.4166"/><ellipse cx="18" cy="413.1607" fill="#84BE84" rx="3" ry="3" style="stroke:#038048;stroke-width:1.0;"/><text fill="#000000" font-family="sans-serif" font-size="14" lengthAdjust="spacing" textLength="135.085" x="27" y="416.9517">fetchHotels(): String</text></g><!--class TripadvisorApiAdapter--><g id="elem_TripadvisorApiAdapter"><rect codeLine="14" fill="#F1F1F1" height="80.9766" id="TripadvisorApiAdapter" rx="2.5" ry="2.5" style="stroke:#181818;stroke-width:0.5;" width="339.2227" x="342.35" y="342.9283"/><ellipse cx="431.1933" cy="358.9283" fill="#ADD1B2" rx="11" ry="11" style="stroke:#181818;stroke-width:1.0;"/><path d="M434.1664,364.5713 Q433.5854,364.8702 432.9462,365.0196 Q432.307,365.169 431.6015,365.169 Q429.0946,365.169 427.7748,363.5171 Q426.455,361.8653 426.455,358.7442 Q426.455,355.6148 427.7748,353.9629 Q429.0946,352.3111 431.6015,352.3111 Q432.307,352.3111 432.9545,352.4605 Q433.602,352.6099 434.1664,352.9087 L434.1664,355.6314 Q433.5355,355.0504 432.942,354.7806 Q432.3485,354.5108 431.7177,354.5108 Q430.3729,354.5108 429.6881,355.5775 Q429.0033,356.6441 429.0033,358.7442 Q429.0033,360.836 429.6881,361.9026 Q430.3729,362.9693 431.7177,362.9693 Q432.3485,362.9693 432.942,362.6995 Q433.5355,362.4297 434.1664,361.8487 Z " fill="#000000"/><text fill="#000000" font-family="sans-serif" font-size="14" lengthAdjust="spacing" textLength="153.0361" x="451.6933" y="364.2193">TripadvisorApiAdapter</text><line style="stroke:#181818;stroke-width:0.5;" x1="343.35" x2="680.5727" y1="374.9283" y2="374.9283"/><rect fill="none" height="6" style="stroke:#C82930;stroke-width:1.0;" width="6" x="350.35" y="385.6724"/><text fill="#000000" font-family="sans-serif" font-size="14" lengthAdjust="spacing" textLength="313.2227" x="362.35" y="392.4634">tripadvisorService : ExternalTripadvisorService</text><line style="stroke:#181818;stroke-width:0.5;" x1="343.35" x2="680.5727" y1="399.4166" y2="399.4166"/><ellipse cx="353.35" cy="413.1607" fill="#84BE84" rx="3" ry="3" style="stroke:#038048;stroke-width:1.0;"/><text fill="#000000" font-family="sans-serif" font-size="14" lengthAdjust="spacing" textLength="135.085" x="362.35" y="416.9517">fetchHotels(): String</text></g><!--class ExternalBookingService--><g id="elem_ExternalBookingService"><rect codeLine="20" fill="#F1F1F1" height="73.1094" id="ExternalBookingService" rx="2.5" ry="2.5" style="stroke:#181818;stroke-width:0.5;" width="215.9844" x="48.97" y="483.9083"/><ellipse cx="75.8264" cy="504.2188" fill="#ADD1B2" rx="11" ry="11" style="stroke:#181818;stroke-width:1.0;"/><path d="M78.7996,509.8619 Q78.2185,510.1607 77.5794,510.3101 Q76.9402,510.4596 76.2346,510.4596 Q73.7278,510.4596 72.408,508.8077 Q71.0882,507.1558 71.0882,504.0347 Q71.0882,500.9054 72.408,499.2535 Q73.7278,497.6016 76.2346,497.6016 Q76.9402,497.6016 77.5877,497.7511 Q78.2351,497.9005 78.7996,498.1993 L78.7996,500.922 Q78.1687,500.3409 77.5752,500.0711 Q76.9817,499.8013 76.3509,499.8013 Q75.0061,499.8013 74.3213,500.868 Q73.6365,501.9346 73.6365,504.0347 Q73.6365,506.1265 74.3213,507.1932 Q75.0061,508.2598 76.3509,508.2598 Q76.9817,508.2598 77.5752,507.9901 Q78.1687,507.7203 78.7996,507.1392 Z " fill="#000000"/><text fill="#000000" font-family="sans-serif" font-size="12" font-style="italic" lengthAdjust="spacing" textLength="60.0645" x="141.2473" y="500.5098">&#171;External&#187;</text><text fill="#000000" font-family="sans-serif" font-size="14" lengthAdjust="spacing" textLength="157.6367" x="92.4612" y="516.5763">ExternalBookingService</text><line style="stroke:#181818;stroke-width:0.5;" x1="49.97" x2="263.9544" y1="524.5294" y2="524.5294"/><line style="stroke:#181818;stroke-width:0.5;" x1="49.97" x2="263.9544" y1="532.5294" y2="532.5294"/><ellipse cx="59.97" cy="546.2735" fill="#84BE84" rx="3" ry="3" style="stroke:#038048;stroke-width:1.0;"/><text fill="#000000" font-family="sans-serif" font-size="14" lengthAdjust="spacing" textLength="189.9844" x="68.97" y="550.0645">fetchBookingHotels(): String</text></g><!--class ExternalTripadvisorService--><g id="elem_ExternalTripadvisorService"><rect codeLine="24" fill="#F1F1F1" height="73.1094" id="ExternalTripadvisorService" rx="2.5" ry="2.5" style="stroke:#181818;stroke-width:0.5;" width="237.8252" x="393.05" y="483.9083"/><ellipse cx="419.9064" cy="504.2188" fill="#ADD1B2" rx="11" ry="11" style="stroke:#181818;stroke-width:1.0;"/><path d="M422.8796,509.8619 Q422.2985,510.1607 421.6594,510.3101 Q421.0202,510.4596 420.3146,510.4596 Q417.8078,510.4596 416.488,508.8077 Q415.1682,507.1558 415.1682,504.0347 Q415.1682,500.9054 416.488,499.2535 Q417.8078,497.6016 420.3146,497.6016 Q421.0202,497.6016 421.6677,497.7511 Q422.3151,497.9005 422.8796,498.1993 L422.8796,500.922 Q422.2487,500.3409 421.6552,500.0711 Q421.0617,499.8013 420.4309,499.8013 Q419.0861,499.8013 418.4013,500.868 Q417.7165,501.9346 417.7165,504.0347 Q417.7165,506.1265 418.4013,507.1932 Q419.0861,508.2598 420.4309,508.2598 Q421.0617,508.2598 421.6552,507.9901 Q422.2487,507.7203 422.8796,507.1392 Z " fill="#000000"/><text fill="#000000" font-family="sans-serif" font-size="12" font-style="italic" lengthAdjust="spacing" textLength="60.0645" x="496.2478" y="500.5098">&#171;External&#187;</text><text fill="#000000" font-family="sans-serif" font-size="14" lengthAdjust="spacing" textLength="179.4775" x="436.5412" y="516.5763">ExternalTripadvisorService</text><line style="stroke:#181818;stroke-width:0.5;" x1="394.05" x2="629.8752" y1="524.5294" y2="524.5294"/><line style="stroke:#181818;stroke-width:0.5;" x1="394.05" x2="629.8752" y1="532.5294" y2="532.5294"/><ellipse cx="404.05" cy="546.2735" fill="#84BE84" rx="3" ry="3" style="stroke:#038048;stroke-width:1.0;"/><text fill="#000000" font-family="sans-serif" font-size="14" lengthAdjust="spacing" textLength="211.8252" x="413.05" y="550.0645">fetchTripadvisorHotels(): String</text></g><!--class HotelController--><g id="elem_HotelController"><rect codeLine="29" fill="#F1F1F1" height="80.9766" id="HotelController" rx="2.5" ry="2.5" style="stroke:#181818;stroke-width:0.5;" width="344.3975" x="325.76" y="44.4883"/><ellipse cx="441.6428" cy="60.4883" fill="#ADD1B2" rx="11" ry="11" style="stroke:#181818;stroke-width:1.0;"/><path d="M444.616,66.1313 Q444.0349,66.4302 443.3957,66.5796 Q442.7566,66.729 442.051,66.729 Q439.5442,66.729 438.2244,65.0771 Q436.9045,63.4253 436.9045,60.3042 Q436.9045,57.1748 438.2244,55.5229 Q439.5442,53.8711 442.051,53.8711 Q442.7566,53.8711 443.404,54.0205 Q444.0515,54.1699 444.616,54.4688 L444.616,57.1914 Q443.9851,56.6104 443.3916,56.3406 Q442.7981,56.0708 442.1672,56.0708 Q440.8225,56.0708 440.1377,57.1375 Q439.4529,58.2041 439.4529,60.3042 Q439.4529,62.396 440.1377,63.4626 Q440.8225,64.5293 442.1672,64.5293 Q442.7981,64.5293 443.3916,64.2595 Q443.9851,63.9897 444.616,63.4087 Z " fill="#000000"/><text fill="#000000" font-family="sans-serif" font-size="14" lengthAdjust="spacing" textLength="104.1318" x="462.1428" y="65.7793">HotelController</text><line style="stroke:#181818;stroke-width:0.5;" x1="326.76" x2="669.1575" y1="76.4883" y2="76.4883"/><rect fill="none" height="6" style="stroke:#C82930;stroke-width:1.0;" width="6" x="333.76" y="87.2324"/><text fill="#000000" font-family="sans-serif" font-size="14" lengthAdjust="spacing" textLength="182.2051" x="345.76" y="94.0234">hotelFactory : HotelFactory</text><line style="stroke:#181818;stroke-width:0.5;" x1="326.76" x2="669.1575" y1="100.9766" y2="100.9766"/><ellipse cx="336.76" cy="114.7207" fill="#84BE84" rx="3" ry="3" style="stroke:#038048;stroke-width:1.0;"/><text fill="#000000" font-family="sans-serif" font-size="14" lengthAdjust="spacing" textLength="318.3975" x="345.76" y="118.5117">getAvailableHotels(String hotelProvider): String</text></g><!--class HotelFactory--><g id="elem_HotelFactory"><rect codeLine="34" fill="#F1F1F1" height="97.4648" id="HotelFactory" rx="2.5" ry="2.5" style="stroke:#181818;stroke-width:0.5;" width="370.6748" x="312.62" y="185.4683"/><ellipse cx="451.0785" cy="201.4683" fill="#ADD1B2" rx="11" ry="11" style="stroke:#181818;stroke-width:1.0;"/><path d="M454.0516,207.1113 Q453.4706,207.4102 452.8314,207.5596 Q452.1923,207.709 451.4867,207.709 Q448.9799,207.709 447.66,206.0571 Q446.3402,204.4053 446.3402,201.2842 Q446.3402,198.1548 447.66,196.5029 Q448.9799,194.8511 451.4867,194.8511 Q452.1923,194.8511 452.8397,195.0005 Q453.4872,195.1499 454.0516,195.4487 L454.0516,198.1714 Q453.4208,197.5904 452.8273,197.3206 Q452.2338,197.0508 451.6029,197.0508 Q450.2582,197.0508 449.5734,198.1175 Q448.8886,199.1841 448.8886,201.2842 Q448.8886,203.376 449.5734,204.4426 Q450.2582,205.5093 451.6029,205.5093 Q452.2338,205.5093 452.8273,205.2395 Q453.4208,204.9697 454.0516,204.3887 Z " fill="#000000"/><text fill="#000000" font-family="sans-serif" font-size="14" lengthAdjust="spacing" textLength="85.2578" x="471.5785" y="206.7593">HotelFactory</text><line style="stroke:#181818;stroke-width:0.5;" x1="313.62" x2="682.2948" y1="217.4683" y2="217.4683"/><rect fill="none" height="6" style="stroke:#C82930;stroke-width:1.0;" width="6" x="320.62" y="228.2124"/><text fill="#000000" font-family="sans-serif" font-size="14" lengthAdjust="spacing" textLength="276.4385" x="332.62" y="235.0034">bookingApiAdapter : BookingApiAdapter</text><rect fill="none" height="6" style="stroke:#C82930;stroke-width:1.0;" width="6" x="320.62" y="244.7007"/><text fill="#000000" font-family="sans-serif" font-size="14" lengthAdjust="spacing" textLength="315.7451" x="332.62" y="251.4917">tripadvisorApiAdapter : TripadvisorApiAdapter</text><line style="stroke:#181818;stroke-width:0.5;" x1="313.62" x2="682.2948" y1="258.4448" y2="258.4448"/><ellipse cx="323.62" cy="272.189" fill="#84BE84" rx="3" ry="3" style="stroke:#038048;stroke-width:1.0;"/><text fill="#000000" font-family="sans-serif" font-size="14" lengthAdjust="spacing" textLength="344.6748" x="332.62" y="275.98">getAdapter(String hotelProvider) : HotelApiAdapter</text></g><!--reverse link HotelApiAdapter to BookingApiAdapter--><g id="link_HotelApiAdapter_BookingApiAdapter"><path codeLine="40" d="M157.11,284.5783 C157.11,306.8683 157.11,318.6483 157.11,342.5683 " fill="none" id="HotelApiAdapter-backto-BookingApiAdapter" style="stroke:#181818;stroke-width:1.0;stroke-dasharray:7.0,7.0;"/><polygon fill="none" points="157.11,266.5783,151.11,284.5783,163.11,284.5783,157.11,266.5783" style="stroke:#181818;stroke-width:1.0;"/></g><!--reverse link HotelApiAdapter to TripadvisorApiAdapter--><g id="link_HotelApiAdapter_TripadvisorApiAdapter"><path codeLine="41" d="M210.81,284.7183 C210.81,306.4283 210.81,313.0183 210.81,313.0183 C210.81,313.0183 455.42,313.0183 455.42,313.0183 C455.42,313.0183 455.42,326.9783 455.42,342.4683 " fill="none" id="HotelApiAdapter-backto-TripadvisorApiAdapter" style="stroke:#181818;stroke-width:1.0;stroke-dasharray:7.0,7.0;"/><polygon fill="none" points="210.81,266.7183,204.81,284.7183,216.81,284.7183,210.81,266.7183" style="stroke:#181818;stroke-width:1.0;"/></g><!--link BookingApiAdapter to ExternalBookingService--><g id="link_BookingApiAdapter_ExternalBookingService"><path codeLine="43" d="M156.96,424.1683 C156.96,443.0983 156.96,459.4483 156.96,477.8383 " fill="none" id="BookingApiAdapter-to-ExternalBookingService" style="stroke:#181818;stroke-width:1.0;"/><polygon fill="#181818" points="156.96,483.8383,160.96,474.8383,156.96,478.8383,152.96,474.8383,156.96,483.8383" style="stroke:#181818;stroke-width:1.0;"/><rect fill="none" height="6" style="stroke:#C82930;stroke-width:1.0;" width="6" x="50.96" y="443.1636"/><text fill="#000000" font-family="sans-serif" font-size="13" lengthAdjust="spacing" textLength="95.6338" x="60.96" y="450.5766">bookingService</text></g><!--link TripadvisorApiAdapter to ExternalTripadvisorService--><g id="link_TripadvisorApiAdapter_ExternalTripadvisorService"><path codeLine="44" d="M511.96,424.1683 C511.96,443.0983 511.96,459.4483 511.96,477.8383 " fill="none" id="TripadvisorApiAdapter-to-ExternalTripadvisorService" style="stroke:#181818;stroke-width:1.0;"/><polygon fill="#181818" points="511.96,483.8383,515.96,474.8383,511.96,478.8383,507.96,474.8383,511.96,483.8383" style="stroke:#181818;stroke-width:1.0;"/><rect fill="none" height="6" style="stroke:#C82930;stroke-width:1.0;" width="6" x="389.96" y="443.1636"/><text fill="#000000" font-family="sans-serif" font-size="13" lengthAdjust="spacing" textLength="111.8521" x="399.96" y="450.5766">tripadvisorService</text></g><!--link HotelFactory to BookingApiAdapter--><g id="link_HotelFactory_BookingApiAdapter"><path codeLine="46" d="M312.16,275.0183 C296.05,275.0183 285.71,275.0183 285.71,275.0183 C285.71,275.0183 285.71,305.7383 285.71,336.4383 " fill="none" id="HotelFactory-to-BookingApiAdapter" style="stroke:#181818;stroke-width:1.0;"/><polygon fill="#181818" points="285.71,342.4383,289.71,333.4383,285.71,337.4383,281.71,333.4383,285.71,342.4383" style="stroke:#181818;stroke-width:1.0;"/></g><!--link HotelFactory to TripadvisorApiAdapter--><g id="link_HotelFactory_TripadvisorApiAdapter"><path codeLine="47" d="M568.5,283.0583 C568.5,302.2683 568.5,318.0783 568.5,336.4383 " fill="none" id="HotelFactory-to-TripadvisorApiAdapter" style="stroke:#181818;stroke-width:1.0;"/><polygon fill="#181818" points="568.5,342.4383,572.5,333.4383,568.5,337.4383,564.5,333.4383,568.5,342.4383" style="stroke:#181818;stroke-width:1.0;"/></g><!--link HotelController to HotelFactory--><g id="link_HotelController_HotelFactory"><path codeLine="48" d="M497.96,125.7583 C497.96,144.0483 497.96,159.7883 497.96,178.9783 " fill="none" id="HotelController-to-HotelFactory" style="stroke:#181818;stroke-width:1.0;"/><polygon fill="#181818" points="497.96,184.9783,501.96,175.9783,497.96,179.9783,493.96,175.9783,497.96,184.9783" style="stroke:#181818;stroke-width:1.0;"/><rect fill="none" height="6" style="stroke:#C82930;stroke-width:1.0;" width="6" x="409.96" y="144.5236"/><text fill="#000000" font-family="sans-serif" font-size="13" lengthAdjust="spacing" textLength="77.6826" x="419.96" y="151.9366">hotelFactory</text></g><!--SRC=[bLDBReCm4DrpYbcsgfm388H4gbRi6YbSm047hBesCYFKgEtTQs8GDfWcPODWthoFFOCS1OEieYqo3GUAvYM1GAwGYGxUseOA9gFkdSkMQle1Wak6bvQ1qjYeA0BpS6cwphHajYrh-KJuPG7cUO8pmxAnl0-FCHnHSrbVopyMLGhQTR1NoeZL7id8GU1aYqUcUsxaOdZv70nJiVSA_nOjD6zfrVDEwR0mpe2rUB4gtcd0SH0E0aao5T9qzZFnZk3R-RQTtb1m6ku8SOKyAubQ2U4VO3EKNcc9Ib_CqUNEvtnODSEifrpGas2ZdDMoxGUjUbun_KTGbpSmECxbnkj92rwtrnAS4z-__HVsFGLVz9e4oyL9ldUxWC4WB6mgMYyI8UdMdCL0_DsAmYlXKXIXdI3hJHdJJRSoK6maSo7XLCi96v2vFrh47RNe5m00]--></g></svg>