<svg xmlns="http://www.w3.org/2000/svg" xmlns:xlink="http://www.w3.org/1999/xlink" contentStyleType="text/css" height="577px" preserveAspectRatio="none" style="width:1372px;height:577px;background:#FFFFFF;" version="1.1" viewBox="0 0 1372 577" width="1372px" zoomAndPan="magnify"><defs/><g><line style="stroke:#181818;stroke-width:0.5;stroke-dasharray:5.0,5.0;" x1="23" x2="23" y1="81.4883" y2="496.8359"/><line style="stroke:#181818;stroke-width:0.5;stroke-dasharray:5.0,5.0;" x1="391.4829" x2="391.4829" y1="81.4883" y2="496.8359"/><line style="stroke:#181818;stroke-width:0.5;stroke-dasharray:5.0,5.0;" x1="903.2715" x2="903.2715" y1="160.7646" y2="496.8359"/><line style="stroke:#181818;stroke-width:0.5;stroke-dasharray:5.0,5.0;" x1="1052.1699" x2="1052.1699" y1="81.4883" y2="496.8359"/><line style="stroke:#181818;stroke-width:0.5;stroke-dasharray:5.0,5.0;" x1="1318.6948" x2="1318.6948" y1="81.4883" y2="496.8359"/><text fill="#000000" font-family="sans-serif" font-size="14" lengthAdjust="spacing" textLength="30.3652" x="5" y="78.5352">User</text><ellipse cx="23.1826" cy="13.5" fill="#E2E2F0" rx="8" ry="8" style="stroke:#181818;stroke-width:0.5;"/><path d="M23.1826,21.5 L23.1826,48.5 M10.1826,29.5 L36.1826,29.5 M23.1826,48.5 L10.1826,63.5 M23.1826,48.5 L36.1826,63.5 " fill="none" style="stroke:#181818;stroke-width:0.5;"/><text fill="#000000" font-family="sans-serif" font-size="14" lengthAdjust="spacing" textLength="30.3652" x="5" y="509.3711">User</text><ellipse cx="23.1826" cy="520.8242" fill="#E2E2F0" rx="8" ry="8" style="stroke:#181818;stroke-width:0.5;"/><path d="M23.1826,528.8242 L23.1826,555.8242 M10.1826,536.8242 L36.1826,536.8242 M23.1826,555.8242 L10.1826,570.8242 M23.1826,555.8242 L36.1826,570.8242 " fill="none" style="stroke:#181818;stroke-width:0.5;"/><rect fill="#E2E2F0" height="46.9766" rx="2.5" ry="2.5" style="stroke:#181818;stroke-width:0.5;" width="94.9854" x="344.4829" y="33.5117"/><text fill="#000000" font-family="sans-serif" font-size="14" lengthAdjust="spacing" textLength="29.7842" x="377.0835" y="54.0469">app:</text><text fill="#000000" font-family="sans-serif" font-size="14" lengthAdjust="spacing" textLength="80.9854" x="351.4829" y="70.5352">TripTopApp</text><rect fill="#E2E2F0" height="46.9766" rx="2.5" ry="2.5" style="stroke:#181818;stroke-width:0.5;" width="94.9854" x="344.4829" y="495.8359"/><text fill="#000000" font-family="sans-serif" font-size="14" lengthAdjust="spacing" textLength="29.7842" x="377.0835" y="516.3711">app:</text><text fill="#000000" font-family="sans-serif" font-size="14" lengthAdjust="spacing" textLength="80.9854" x="351.4829" y="532.8594">TripTopApp</text><rect fill="#E2E2F0" height="46.9766" rx="2.5" ry="2.5" style="stroke:#181818;stroke-width:0.5;" width="89.0176" x="859.2715" y="495.8359"/><text fill="#000000" font-family="sans-serif" font-size="14" lengthAdjust="spacing" textLength="75.0176" x="866.2715" y="516.3711">carActivity:</text><text fill="#000000" font-family="sans-serif" font-size="14" lengthAdjust="spacing" textLength="73.1035" x="867.2285" y="532.8594">CarActivity</text><rect fill="#E2E2F0" height="46.9766" rx="2.5" ry="2.5" style="stroke:#181818;stroke-width:0.5;" width="140" x="982.1699" y="33.5117"/><text fill="#000000" font-family="sans-serif" font-size="14" lengthAdjust="spacing" textLength="51.3584" x="1026.4907" y="54.0469">service:</text><text fill="#000000" font-family="sans-serif" font-size="14" lengthAdjust="spacing" textLength="126" x="989.1699" y="70.5352">TripAdvisorService</text><rect fill="#E2E2F0" height="46.9766" rx="2.5" ry="2.5" style="stroke:#181818;stroke-width:0.5;" width="140" x="982.1699" y="495.8359"/><text fill="#000000" font-family="sans-serif" font-size="14" lengthAdjust="spacing" textLength="51.3584" x="1026.4907" y="516.3711">service:</text><text fill="#000000" font-family="sans-serif" font-size="14" lengthAdjust="spacing" textLength="126" x="989.1699" y="532.8594">TripAdvisorService</text><text fill="#000000" font-family="sans-serif" font-size="14" lengthAdjust="spacing" textLength="100.0986" x="1265.6948" y="78.5352">TripAdvisorAPI</text><path d="M1300.7441,29 C1300.7441,19 1318.7441,19 1318.7441,19 C1318.7441,19 1336.7441,19 1336.7441,29 L1336.7441,55 C1336.7441,65 1318.7441,65 1318.7441,65 C1318.7441,65 1300.7441,65 1300.7441,55 L1300.7441,29 " fill="#E2E2F0" style="stroke:#181818;stroke-width:1.5;"/><path d="M1300.7441,29 C1300.7441,39 1318.7441,39 1318.7441,39 C1318.7441,39 1336.7441,39 1336.7441,29 " fill="none" style="stroke:#181818;stroke-width:1.5;"/><text fill="#000000" font-family="sans-serif" font-size="14" lengthAdjust="spacing" textLength="100.0986" x="1265.6948" y="509.3711">TripAdvisorAPI</text><path d="M1300.7441,522.3242 C1300.7441,512.3242 1318.7441,512.3242 1318.7441,512.3242 C1318.7441,512.3242 1336.7441,512.3242 1336.7441,522.3242 L1336.7441,548.3242 C1336.7441,558.3242 1318.7441,558.3242 1318.7441,558.3242 C1318.7441,558.3242 1300.7441,558.3242 1300.7441,548.3242 L1300.7441,522.3242 " fill="#E2E2F0" style="stroke:#181818;stroke-width:1.5;"/><path d="M1300.7441,522.3242 C1300.7441,532.3242 1318.7441,532.3242 1318.7441,532.3242 C1318.7441,532.3242 1336.7441,532.3242 1336.7441,522.3242 " fill="none" style="stroke:#181818;stroke-width:1.5;"/><polygon fill="#181818" points="379.9756,108.7988,389.9756,112.7988,379.9756,116.7988,383.9756,112.7988" style="stroke:#181818;stroke-width:1.0;"/><line style="stroke:#181818;stroke-width:1.0;" x1="23.1826" x2="385.9756" y1="112.7988" y2="112.7988"/><text fill="#000000" font-family="sans-serif" font-size="13" font-weight="bold" lengthAdjust="spacing" textLength="8.5757" x="30.1826" y="108.0566">1</text><text fill="#000000" font-family="sans-serif" font-size="13" lengthAdjust="spacing" textLength="332.2173" x="42.7583" y="108.0566">searchCars(pickUpPlaceId, pickUpDate, dropOffDate)</text><polygon fill="#181818" points="847.2715,168.7305,857.2715,172.7305,847.2715,176.7305,851.2715,172.7305" style="stroke:#181818;stroke-width:1.0;"/><line style="stroke:#181818;stroke-width:1.0;" x1="391.9756" x2="853.2715" y1="172.7305" y2="172.7305"/><text fill="#000000" font-family="sans-serif" font-size="13" font-weight="bold" lengthAdjust="spacing" textLength="8.5757" x="398.9756" y="152.6777">2</text><text fill="#000000" font-family="sans-serif" font-size="13" lengthAdjust="spacing" textLength="426.6069" x="411.5513" y="137.3672">carActivity = new CarActivity(order, driverAge, page, currencyCode,</text><text fill="#000000" font-family="sans-serif" font-size="13" lengthAdjust="spacing" textLength="394.1387" x="415.6646" y="152.6777">pickUpPlaceId, pickUpLocationType, pickUpDate, dropOffDate,</text><text fill="#000000" font-family="sans-serif" font-size="13" lengthAdjust="spacing" textLength="167.8828" x="415.6646" y="167.9883">pickUpTime, dropOffTime)</text><rect fill="#E2E2F0" height="46.9766" rx="2.5" ry="2.5" style="stroke:#181818;stroke-width:0.5;" width="89.0176" x="859.2715" y="122.7539"/><text fill="#000000" font-family="sans-serif" font-size="14" lengthAdjust="spacing" textLength="75.0176" x="866.2715" y="143.2891">carActivity:</text><text fill="#000000" font-family="sans-serif" font-size="14" lengthAdjust="spacing" textLength="73.1035" x="867.2285" y="159.7773">CarActivity</text><polygon fill="#181818" points="1040.1699,198.041,1050.1699,202.041,1040.1699,206.041,1044.1699,202.041" style="stroke:#181818;stroke-width:1.0;"/><line style="stroke:#181818;stroke-width:1.0;" x1="391.9756" x2="1046.1699" y1="202.041" y2="202.041"/><text fill="#000000" font-family="sans-serif" font-size="13" font-weight="bold" lengthAdjust="spacing" textLength="8.5757" x="398.9756" y="197.2988">3</text><text fill="#000000" font-family="sans-serif" font-size="13" lengthAdjust="spacing" textLength="161.4844" x="411.5513" y="197.2988">searchActivity(carActivity)</text><polygon fill="#181818" points="914.7803,227.3516,904.7803,231.3516,914.7803,235.3516,910.7803,231.3516" style="stroke:#181818;stroke-width:1.0;"/><line style="stroke:#181818;stroke-width:1.0;" x1="908.7803" x2="1051.1699" y1="231.3516" y2="231.3516"/><text fill="#000000" font-family="sans-serif" font-size="13" font-weight="bold" lengthAdjust="spacing" textLength="8.5757" x="920.7803" y="226.6094">4</text><text fill="#000000" font-family="sans-serif" font-size="13" lengthAdjust="spacing" textLength="84.8174" x="933.356" y="226.6094">getEndpoint()</text><polygon fill="#181818" points="1040.1699,256.6621,1050.1699,260.6621,1040.1699,264.6621,1044.1699,260.6621" style="stroke:#181818;stroke-width:1.0;"/><line style="stroke:#181818;stroke-width:1.0;stroke-dasharray:2.0,2.0;" x1="903.7803" x2="1046.1699" y1="260.6621" y2="260.6621"/><text fill="#000000" font-family="sans-serif" font-size="13" font-weight="bold" lengthAdjust="spacing" textLength="8.5757" x="910.7803" y="255.9199">5</text><text fill="#000000" font-family="sans-serif" font-size="13" lengthAdjust="spacing" textLength="56.3481" x="923.356" y="255.9199">endpoint</text><polygon fill="#181818" points="914.7803,285.9727,904.7803,289.9727,914.7803,293.9727,910.7803,289.9727" style="stroke:#181818;stroke-width:1.0;"/><line style="stroke:#181818;stroke-width:1.0;" x1="908.7803" x2="1051.1699" y1="289.9727" y2="289.9727"/><text fill="#000000" font-family="sans-serif" font-size="13" font-weight="bold" lengthAdjust="spacing" textLength="8.5757" x="920.7803" y="285.2305">6</text><text fill="#000000" font-family="sans-serif" font-size="13" lengthAdjust="spacing" textLength="111.814" x="933.356" y="285.2305">getQueryParams()</text><polygon fill="#181818" points="1040.1699,315.2832,1050.1699,319.2832,1040.1699,323.2832,1044.1699,319.2832" style="stroke:#181818;stroke-width:1.0;"/><line style="stroke:#181818;stroke-width:1.0;stroke-dasharray:2.0,2.0;" x1="903.7803" x2="1046.1699" y1="319.2832" y2="319.2832"/><text fill="#000000" font-family="sans-serif" font-size="13" font-weight="bold" lengthAdjust="spacing" textLength="8.5757" x="910.7803" y="314.541">7</text><text fill="#000000" font-family="sans-serif" font-size="13" lengthAdjust="spacing" textLength="81.231" x="923.356" y="314.541">queryParams</text><line style="stroke:#181818;stroke-width:1.0;" x1="1052.1699" x2="1094.1699" y1="348.5938" y2="348.5938"/><line style="stroke:#181818;stroke-width:1.0;" x1="1094.1699" x2="1094.1699" y1="348.5938" y2="361.5938"/><line style="stroke:#181818;stroke-width:1.0;" x1="1053.1699" x2="1094.1699" y1="361.5938" y2="361.5938"/><polygon fill="#181818" points="1063.1699,357.5938,1053.1699,361.5938,1063.1699,365.5938,1059.1699,361.5938" style="stroke:#181818;stroke-width:1.0;"/><text fill="#000000" font-family="sans-serif" font-size="13" font-weight="bold" lengthAdjust="spacing" textLength="8.5757" x="1059.1699" y="343.8516">8</text><text fill="#000000" font-family="sans-serif" font-size="13" lengthAdjust="spacing" textLength="239.9985" x="1071.7456" y="343.8516">uri = buildUri(endpoint, queryParams)</text><polygon fill="#181818" points="1306.7441,386.9043,1316.7441,390.9043,1306.7441,394.9043,1310.7441,390.9043" style="stroke:#181818;stroke-width:1.0;"/><line style="stroke:#181818;stroke-width:1.0;" x1="1052.1699" x2="1312.7441" y1="390.9043" y2="390.9043"/><text fill="#000000" font-family="sans-serif" font-size="13" font-weight="bold" lengthAdjust="spacing" textLength="8.5757" x="1059.1699" y="386.1621">9</text><text fill="#000000" font-family="sans-serif" font-size="13" lengthAdjust="spacing" textLength="200.1987" x="1071.7456" y="386.1621">HTTP GET Request(uri, headers)</text><polygon fill="#181818" points="1063.1699,416.2148,1053.1699,420.2148,1063.1699,424.2148,1059.1699,420.2148" style="stroke:#181818;stroke-width:1.0;"/><line style="stroke:#181818;stroke-width:1.0;stroke-dasharray:2.0,2.0;" x1="1057.1699" x2="1317.7441" y1="420.2148" y2="420.2148"/><text fill="#000000" font-family="sans-serif" font-size="13" font-weight="bold" lengthAdjust="spacing" textLength="17.1514" x="1069.1699" y="415.4727">10</text><text fill="#000000" font-family="sans-serif" font-size="13" lengthAdjust="spacing" textLength="95.0562" x="1090.3213" y="415.4727">JSON Response</text><polygon fill="#181818" points="402.9756,445.5254,392.9756,449.5254,402.9756,453.5254,398.9756,449.5254" style="stroke:#181818;stroke-width:1.0;"/><line style="stroke:#181818;stroke-width:1.0;stroke-dasharray:2.0,2.0;" x1="396.9756" x2="1051.1699" y1="449.5254" y2="449.5254"/><text fill="#000000" font-family="sans-serif" font-size="13" font-weight="bold" lengthAdjust="spacing" textLength="17.1514" x="408.9756" y="444.7832">11</text><text fill="#000000" font-family="sans-serif" font-size="13" lengthAdjust="spacing" textLength="106.0313" x="430.127" y="444.7832">carSearchResults</text><polygon fill="#181818" points="34.1826,474.8359,24.1826,478.8359,34.1826,482.8359,30.1826,478.8359" style="stroke:#181818;stroke-width:1.0;"/><line style="stroke:#181818;stroke-width:1.0;stroke-dasharray:2.0,2.0;" x1="28.1826" x2="390.9756" y1="478.8359" y2="478.8359"/><text fill="#000000" font-family="sans-serif" font-size="13" font-weight="bold" lengthAdjust="spacing" textLength="17.1514" x="40.1826" y="474.0938">12</text><text fill="#000000" font-family="sans-serif" font-size="13" lengthAdjust="spacing" textLength="106.0313" x="61.334" y="474.0938">carSearchResults</text><!--SRC=[VPB1Ri8m38RlUOg8Kv7Q5q3Rf8fD6zCqs2WtBYOr40sIp4axzUtdGe5K6rogEFxy-xSRg88rrNw590IeO4akF9yTKD1AEp113i2vqT8Kf5rXNUxSG8ANVDcd552kWgvrQ9WUNw837cNxPTojrWgx1dbPQszfVhmyL7Q0A2702ZpAGGJciqddHWlHEfVPGsjjn6L0QiisVEAq-bgusGuKJifK7iD729ZAagoRhjTjC1H24VAXvvMrMibuk3YGzzBWZuocJIoLIAsohf7o3JTnq7vLHOH6DMDRShGqybzRRrP1qDOKZSEhLgFoGkylkJRWCJhFfyrsgpWRZEmFHGVzcN63uScKpceJag689yvYQUmOSKleeq9gPa2mzxUqlYzOJ-uCLAHvtwjAxye5wUJKEuqhXxrIVXOZ-L8KC_dyLCXFPD27X7LIkKNW_yGyCtqVh_FfExFUMUCnaZkzB1vWVjWeCzKk-EExkykoA-bV]--></g></svg>