<svg xmlns="http://www.w3.org/2000/svg" xmlns:xlink="http://www.w3.org/1999/xlink" contentStyleType="text/css" height="543px" preserveAspectRatio="none" style="width:689px;height:543px;background:#FFFFFF;" version="1.1" viewBox="0 0 689 543" width="689px" zoomAndPan="magnify"><defs/><g><!--class AuthorisationController--><g id="elem_AuthorisationController"><rect codeLine="7" fill="#F1F1F1" height="97.4648" id="AuthorisationController" rx="2.5" ry="2.5" style="stroke:#181818;stroke-width:0.5;" width="367.3799" x="258.18" y="7"/><ellipse cx="357.4959" cy="23" fill="#ADD1B2" rx="11" ry="11" style="stroke:#181818;stroke-width:1.0;"/><path d="M360.4691,28.6431 Q359.888,28.9419 359.2488,29.0913 Q358.6097,29.2407 357.9041,29.2407 Q355.3973,29.2407 354.0775,27.5889 Q352.7576,25.937 352.7576,22.8159 Q352.7576,19.6865 354.0775,18.0347 Q355.3973,16.3828 357.9041,16.3828 Q358.6097,16.3828 359.2571,16.5322 Q359.9046,16.6816 360.4691,16.9805 L360.4691,19.7031 Q359.8382,19.1221 359.2447,18.8523 Q358.6512,18.5825 358.0203,18.5825 Q356.6756,18.5825 355.9908,19.6492 Q355.306,20.7158 355.306,22.8159 Q355.306,24.9077 355.9908,25.9744 Q356.6756,27.041 358.0203,27.041 Q358.6512,27.041 359.2447,26.7712 Q359.8382,26.5015 360.4691,25.9204 Z " fill="#000000"/><text fill="#000000" font-family="sans-serif" font-size="14" lengthAdjust="spacing" textLength="160.248" x="377.9959" y="28.291">AuthorisationController</text><line style="stroke:#181818;stroke-width:0.5;" x1="259.18" x2="624.5599" y1="39" y2="39"/><rect fill="none" height="6" style="stroke:#C82930;stroke-width:1.0;" width="6" x="266.18" y="49.7441"/><text fill="#000000" font-family="sans-serif" font-size="14" lengthAdjust="spacing" textLength="341.3799" x="278.18" y="56.5352">authorisationService : AuthorisationServiceFacade;</text><line style="stroke:#181818;stroke-width:0.5;" x1="259.18" x2="624.5599" y1="63.4883" y2="63.4883"/><ellipse cx="269.18" cy="77.2324" fill="#84BE84" rx="3" ry="3" style="stroke:#038048;stroke-width:1.0;"/><text fill="#000000" font-family="sans-serif" font-size="14" lengthAdjust="spacing" textLength="268.6934" x="278.18" y="81.0234">login(login: LoginDto) : ResponseEntity;</text><ellipse cx="269.18" cy="93.7207" fill="#84BE84" rx="3" ry="3" style="stroke:#038048;stroke-width:1.0;"/><text fill="#000000" font-family="sans-serif" font-size="14" lengthAdjust="spacing" textLength="279.5762" x="278.18" y="97.5117">isLoggedIn() : ResponseEntity&lt;Boolean&gt;;</text></g><!--class AuthorisationServiceFacade--><g id="elem_AuthorisationServiceFacade"><rect codeLine="14" fill="#F1F1F1" height="113.9531" id="AuthorisationServiceFacade" rx="2.5" ry="2.5" style="stroke:#181818;stroke-width:0.5;" width="332.4824" x="275.63" y="164.47"/><ellipse cx="344.5363" cy="180.47" fill="#ADD1B2" rx="11" ry="11" style="stroke:#181818;stroke-width:1.0;"/><path d="M347.5094,186.1131 Q346.9283,186.4119 346.2892,186.5613 Q345.65,186.7107 344.9445,186.7107 Q342.4376,186.7107 341.1178,185.0589 Q339.798,183.407 339.798,180.2859 Q339.798,177.1565 341.1178,175.5047 Q342.4376,173.8528 344.9445,173.8528 Q345.65,173.8528 346.2975,174.0022 Q346.9449,174.1516 347.5094,174.4505 L347.5094,177.1731 Q346.8785,176.5921 346.285,176.3223 Q345.6915,176.0525 345.0607,176.0525 Q343.7159,176.0525 343.0311,177.1192 Q342.3463,178.1858 342.3463,180.2859 Q342.3463,182.3777 343.0311,183.4444 Q343.7159,184.511 345.0607,184.511 Q345.6915,184.511 346.285,184.2412 Q346.8785,183.9715 347.5094,183.3904 Z " fill="#000000"/><text fill="#000000" font-family="sans-serif" font-size="14" lengthAdjust="spacing" textLength="186.1699" x="365.0363" y="185.761">AuthorisationServiceFacade</text><line style="stroke:#181818;stroke-width:0.5;" x1="276.63" x2="607.1124" y1="196.47" y2="196.47"/><rect fill="none" height="6" style="stroke:#C82930;stroke-width:1.0;" width="6" x="283.63" y="207.2141"/><text fill="#000000" font-family="sans-serif" font-size="14" lengthAdjust="spacing" textLength="196.6494" x="295.63" y="214.0052">client: IdentityProviderClient;</text><rect fill="none" height="6" style="stroke:#C82930;stroke-width:1.0;" width="6" x="283.63" y="223.7024"/><text fill="#000000" font-family="sans-serif" font-size="14" lengthAdjust="spacing" textLength="198.1875" x="295.63" y="230.4934">jdbcTemplate: JdbcTemplate;</text><line style="stroke:#181818;stroke-width:0.5;" x1="276.63" x2="607.1124" y1="237.4466" y2="237.4466"/><ellipse cx="286.63" cy="251.1907" fill="#84BE84" rx="3" ry="3" style="stroke:#038048;stroke-width:1.0;"/><text fill="#000000" font-family="sans-serif" font-size="14" lengthAdjust="spacing" textLength="269.7324" x="295.63" y="254.9817">login(login: LoginDto) : LoginTokenDto;</text><ellipse cx="286.63" cy="267.679" fill="#84BE84" rx="3" ry="3" style="stroke:#038048;stroke-width:1.0;"/><text fill="#000000" font-family="sans-serif" font-size="14" lengthAdjust="spacing" textLength="306.4824" x="295.63" y="271.47">isLoggedIn(token: LoginTokenDto) : boolean;</text></g><!--class IdentityProviderClient--><g id="elem_IdentityProviderClient"><rect codeLine="22" fill="#F1F1F1" height="80.9766" id="IdentityProviderClient" rx="2.5" ry="2.5" style="stroke:#181818;stroke-width:0.5;" width="515.7334" x="7" y="338.42"/><ellipse cx="187.4312" cy="354.42" fill="#ADD1B2" rx="11" ry="11" style="stroke:#181818;stroke-width:1.0;"/><path d="M190.4043,360.0631 Q189.8232,360.3619 189.1841,360.5113 Q188.5449,360.6607 187.8394,360.6607 Q185.3325,360.6607 184.0127,359.0089 Q182.6929,357.357 182.6929,354.2359 Q182.6929,351.1065 184.0127,349.4547 Q185.3325,347.8028 187.8394,347.8028 Q188.5449,347.8028 189.1924,347.9522 Q189.8398,348.1016 190.4043,348.4005 L190.4043,351.1231 Q189.7734,350.5421 189.1799,350.2723 Q188.5864,350.0025 187.9556,350.0025 Q186.6108,350.0025 185.926,351.0692 Q185.2412,352.1358 185.2412,354.2359 Q185.2412,356.3277 185.926,357.3944 Q186.6108,358.461 187.9556,358.461 Q188.5864,358.461 189.1799,358.1912 Q189.7734,357.9215 190.4043,357.3404 Z " fill="#000000"/><text fill="#000000" font-family="sans-serif" font-size="14" lengthAdjust="spacing" textLength="146.3711" x="207.9312" y="359.711">IdentityProviderClient</text><line style="stroke:#181818;stroke-width:0.5;" x1="8" x2="521.7334" y1="370.42" y2="370.42"/><line style="stroke:#181818;stroke-width:0.5;" x1="8" x2="521.7334" y1="378.42" y2="378.42"/><ellipse cx="18" cy="392.1641" fill="#84BE84" rx="3" ry="3" style="stroke:#038048;stroke-width:1.0;"/><text fill="#000000" font-family="sans-serif" font-size="14" lengthAdjust="spacing" textLength="403.2861" x="27" y="395.9552">login(login: LoginDto) : Result&lt;JsonResponse, Throwable&gt;;</text><ellipse cx="18" cy="408.6524" fill="#84BE84" rx="3" ry="3" style="stroke:#038048;stroke-width:1.0;"/><text fill="#000000" font-family="sans-serif" font-size="14" lengthAdjust="spacing" textLength="489.7334" x="27" y="412.4434">isLoggedIn(token: LoginTokenDto) : Result&lt;JsonResponse, Throwable&gt;;</text></g><!--class JdbcTemplate--><g id="elem_JdbcTemplate"><rect codeLine="28" fill="#F1F1F1" height="56.6211" id="JdbcTemplate" rx="2.5" ry="2.5" style="stroke:#181818;stroke-width:0.5;" width="124.4971" x="557.62" y="350.6"/><ellipse cx="572.62" cy="370.9105" fill="#ADD1B2" rx="11" ry="11" style="stroke:#181818;stroke-width:1.0;"/><path d="M575.5931,376.5536 Q575.0121,376.8524 574.3729,377.0019 Q573.7338,377.1513 573.0282,377.1513 Q570.5214,377.1513 569.2015,375.4994 Q567.8817,373.8476 567.8817,370.7265 Q567.8817,367.5971 569.2015,365.9452 Q570.5214,364.2934 573.0282,364.2934 Q573.7338,364.2934 574.3812,364.4428 Q575.0287,364.5922 575.5931,364.891 L575.5931,367.6137 Q574.9623,367.0326 574.3688,366.7628 Q573.7753,366.4931 573.1444,366.4931 Q571.7997,366.4931 571.1149,367.5597 Q570.4301,368.6264 570.4301,370.7265 Q570.4301,372.8183 571.1149,373.8849 Q571.7997,374.9516 573.1444,374.9516 Q573.7753,374.9516 574.3688,374.6818 Q574.9623,374.412 575.5931,373.831 Z " fill="#000000"/><text fill="#000000" font-family="sans-serif" font-size="12" font-style="italic" lengthAdjust="spacing" textLength="60.0645" x="602.8363" y="367.2016">&#171;External&#187;</text><text fill="#000000" font-family="sans-serif" font-size="14" lengthAdjust="spacing" textLength="92.4971" x="586.62" y="383.268">JdbcTemplate</text><line style="stroke:#181818;stroke-width:0.5;" x1="558.62" x2="681.1171" y1="391.2211" y2="391.2211"/><line style="stroke:#181818;stroke-width:0.5;" x1="558.62" x2="681.1171" y1="399.2211" y2="399.2211"/></g><!--class IdentityProvider--><g id="elem_IdentityProvider"><rect codeLine="31" fill="#F1F1F1" height="56.6211" id="IdentityProvider" rx="2.5" ry="2.5" style="stroke:#181818;stroke-width:0.5;" width="138.8662" x="195.43" y="479.4"/><ellipse cx="210.43" cy="499.7105" fill="#ADD1B2" rx="11" ry="11" style="stroke:#181818;stroke-width:1.0;"/><path d="M213.4031,505.3536 Q212.8221,505.6524 212.1829,505.8019 Q211.5438,505.9513 210.8382,505.9513 Q208.3314,505.9513 207.0115,504.2994 Q205.6917,502.6476 205.6917,499.5265 Q205.6917,496.3971 207.0115,494.7452 Q208.3314,493.0934 210.8382,493.0934 Q211.5438,493.0934 212.1912,493.2428 Q212.8387,493.3922 213.4031,493.691 L213.4031,496.4137 Q212.7723,495.8326 212.1788,495.5628 Q211.5853,495.2931 210.9544,495.2931 Q209.6097,495.2931 208.9249,496.3597 Q208.2401,497.4264 208.2401,499.5265 Q208.2401,501.6183 208.9249,502.6849 Q209.6097,503.7516 210.9544,503.7516 Q211.5853,503.7516 212.1788,503.4818 Q212.7723,503.212 213.4031,502.631 Z " fill="#000000"/><text fill="#000000" font-family="sans-serif" font-size="12" font-style="italic" lengthAdjust="spacing" textLength="60.0645" x="247.8309" y="496.0016">&#171;External&#187;</text><text fill="#000000" font-family="sans-serif" font-size="14" lengthAdjust="spacing" textLength="106.8662" x="224.43" y="512.068">IdentityProvider</text><line style="stroke:#181818;stroke-width:0.5;" x1="196.43" x2="333.2962" y1="520.0211" y2="520.0211"/><line style="stroke:#181818;stroke-width:0.5;" x1="196.43" x2="333.2962" y1="528.0211" y2="528.0211"/></g><!--link AuthorisationController to AuthorisationServiceFacade--><g id="link_AuthorisationController_AuthorisationServiceFacade"><path codeLine="34" d="M441.87,104.53 C441.87,123.21 441.87,138.78 441.87,158.21 " fill="none" id="AuthorisationController-to-AuthorisationServiceFacade" style="stroke:#181818;stroke-width:1.0;"/><polygon fill="#181818" points="441.87,164.21,445.87,155.21,441.87,159.21,437.87,155.21,441.87,164.21" style="stroke:#181818;stroke-width:1.0;"/></g><!--link AuthorisationServiceFacade to IdentityProviderClient--><g id="link_AuthorisationServiceFacade_IdentityProviderClient"><path codeLine="35" d="M377.72,278.79 C355.36,298.43 335.2584,316.0809 314.7384,334.1009 " fill="none" id="AuthorisationServiceFacade-to-IdentityProviderClient" style="stroke:#181818;stroke-width:1.0;"/><polygon fill="#181818" points="310.23,338.06,319.632,335.1269,313.987,334.7607,314.3532,329.1158,310.23,338.06" style="stroke:#181818;stroke-width:1.0;"/></g><!--link AuthorisationServiceFacade to JdbcTemplate--><g id="link_AuthorisationServiceFacade_JdbcTemplate"><path codeLine="36" d="M506.38,278.79 C534.24,303.12 561.051,326.5431 583.721,346.3431 " fill="none" id="AuthorisationServiceFacade-to-JdbcTemplate" style="stroke:#181818;stroke-width:1.0;"/><polygon fill="#181818" points="588.24,350.29,584.0927,341.3569,584.4741,347.0009,578.8302,347.3823,588.24,350.29" style="stroke:#181818;stroke-width:1.0;"/></g><!--link IdentityProviderClient to IdentityProvider--><g id="link_IdentityProviderClient_IdentityProvider"><path codeLine="38" d="M264.87,419.68 C264.87,439 264.87,455.74 264.87,473.12 " fill="none" id="IdentityProviderClient-to-IdentityProvider" style="stroke:#181818;stroke-width:1.0;"/><polygon fill="#181818" points="264.87,479.12,268.87,470.12,264.87,474.12,260.87,470.12,264.87,479.12" style="stroke:#181818;stroke-width:1.0;"/></g><!--SRC=[bLDDRvj04BtpA-QML2tv0TYYQlEX9EgXQdtgRO097hFie6Mm6rVzxvsbj79IRAiSWDbzxyrxit01DJMo9m_YTKUXsmR4Eaiku5u8zX9gs11Gs8e4g51ZLV06o1WxtkovPby3UwWeRcElOIXr609iqOye-guKF45l8bmIU2QDw3Kv0kmwnoKgMotqf836Ke8E-vxyUxDnmmhSGyiR3mDhJMQoCKJZ8WGgnZfWQqy2Ri2ZwIgqs5Zdw21MNH0LVUvYpyBojeYDNfdsDoELKIUTPD8dBB6Ygsve7OoH8vyzcq7tkcUIZ5puCEXQ0lUMGlorZJ68SnJWHm9sfO27-r-dAMGlQTFotTX-aOpCj-34fdivtZFu51ytAc-C-uNwJdnFjrvPdnSJd7l3r5Gz-Cj_GSkF8exGvulavwpp5nR-cYyTazSC7YeQPJu7sN95uNfSNqoeJLMKAsexXqePF1vKvxECxokn0xE5cIWQjrx18g_udUSWphp7AShfQGvEbu-z-3ypUmUhTP0T5exo__1qLicyJcOFXmJBvUtubw3BS_DxDD4CyDZNbwRvYVDDJXnzPCwFyXphC5EI73cEEVda5m00]--></g></svg>