<svg xmlns="http://www.w3.org/2000/svg" xmlns:xlink="http://www.w3.org/1999/xlink" contentStyleType="text/css" height="749px" preserveAspectRatio="none" style="width:860px;height:749px;background:#FFFFFF;" version="1.1" viewBox="0 0 860 749" width="860px" zoomAndPan="magnify"><defs/><g><!--class LoginDto--><g id="elem_LoginDto"><rect codeLine="7" fill="#F1F1F1" height="113.9531" id="LoginDto" rx="2.5" ry="2.5" style="stroke:#181818;stroke-width:0.5;" width="159.4375" x="75.27" y="164.47"/><ellipse cx="119.813" cy="180.47" fill="#ADD1B2" rx="11" ry="11" style="stroke:#181818;stroke-width:1.0;"/><path d="M122.7861,186.1131 Q122.2051,186.4119 121.5659,186.5613 Q120.9267,186.7107 120.2212,186.7107 Q117.7143,186.7107 116.3945,185.0589 Q115.0747,183.407 115.0747,180.2859 Q115.0747,177.1565 116.3945,175.5047 Q117.7143,173.8528 120.2212,173.8528 Q120.9267,173.8528 121.5742,174.0022 Q122.2217,174.1516 122.7861,174.4505 L122.7861,177.1731 Q122.1553,176.5921 121.5617,176.3223 Q120.9682,176.0525 120.3374,176.0525 Q118.9927,176.0525 118.3078,177.1192 Q117.623,178.1858 117.623,180.2859 Q117.623,182.3777 118.3078,183.4444 Q118.9927,184.511 120.3374,184.511 Q120.9682,184.511 121.5617,184.2412 Q122.1553,183.9715 122.7861,183.3904 Z " fill="#000000"/><text fill="#000000" font-family="sans-serif" font-size="14" lengthAdjust="spacing" textLength="61.8516" x="140.313" y="185.761">LoginDto</text><line style="stroke:#181818;stroke-width:0.5;" x1="76.27" x2="233.7075" y1="196.47" y2="196.47"/><rect fill="none" height="6" style="stroke:#C82930;stroke-width:1.0;" width="6" x="83.27" y="207.2141"/><text fill="#000000" font-family="sans-serif" font-size="14" lengthAdjust="spacing" textLength="119.9023" x="95.27" y="214.0052">username: String;</text><rect fill="none" height="6" style="stroke:#C82930;stroke-width:1.0;" width="6" x="83.27" y="223.7024"/><text fill="#000000" font-family="sans-serif" font-size="14" lengthAdjust="spacing" textLength="118.002" x="95.27" y="230.4934">password: String;</text><line style="stroke:#181818;stroke-width:0.5;" x1="76.27" x2="233.7075" y1="237.4466" y2="237.4466"/><ellipse cx="86.27" cy="251.1907" fill="#84BE84" rx="3" ry="3" style="stroke:#038048;stroke-width:1.0;"/><text fill="#000000" font-family="sans-serif" font-size="14" lengthAdjust="spacing" textLength="133.4375" x="95.27" y="254.9817">username() : String;</text><ellipse cx="86.27" cy="267.679" fill="#84BE84" rx="3" ry="3" style="stroke:#038048;stroke-width:1.0;"/><text fill="#000000" font-family="sans-serif" font-size="14" lengthAdjust="spacing" textLength="131.5371" x="95.27" y="271.47">password() : String;</text></g><!--class JsonObject--><g id="elem_JsonObject"><rect codeLine="15" fill="#F1F1F1" height="56.6211" id="JsonObject" rx="2.5" ry="2.5" style="stroke:#181818;stroke-width:0.5;" width="104.9326" x="270.52" y="686.33"/><ellipse cx="285.52" cy="706.6405" fill="#ADD1B2" rx="11" ry="11" style="stroke:#181818;stroke-width:1.0;"/><path d="M288.4931,712.2836 Q287.9121,712.5824 287.2729,712.7319 Q286.6338,712.8813 285.9282,712.8813 Q283.4214,712.8813 282.1015,711.2294 Q280.7817,709.5776 280.7817,706.4565 Q280.7817,703.3271 282.1015,701.6752 Q283.4214,700.0234 285.9282,700.0234 Q286.6338,700.0234 287.2812,700.1728 Q287.9287,700.3222 288.4931,700.621 L288.4931,703.3437 Q287.8623,702.7626 287.2688,702.4928 Q286.6753,702.2231 286.0444,702.2231 Q284.6997,702.2231 284.0149,703.2897 Q283.3301,704.3564 283.3301,706.4565 Q283.3301,708.5483 284.0149,709.6149 Q284.6997,710.6816 286.0444,710.6816 Q286.6753,710.6816 287.2688,710.4118 Q287.8623,710.142 288.4931,709.561 Z " fill="#000000"/><text fill="#000000" font-family="sans-serif" font-size="12" font-style="italic" lengthAdjust="spacing" textLength="60.0645" x="305.9541" y="702.9316">&#171;External&#187;</text><text fill="#000000" font-family="sans-serif" font-size="14" lengthAdjust="spacing" textLength="72.9326" x="299.52" y="718.998">JsonObject</text><line style="stroke:#181818;stroke-width:0.5;" x1="271.52" x2="374.4526" y1="726.9511" y2="726.9511"/><line style="stroke:#181818;stroke-width:0.5;" x1="271.52" x2="374.4526" y1="734.9511" y2="734.9511"/></g><!--class JsonResponse--><g id="elem_JsonResponse"><rect codeLine="18" fill="#F1F1F1" height="97.4648" id="JsonResponse" rx="2.5" ry="2.5" style="stroke:#181818;stroke-width:0.5;" width="208.0957" x="218.94" y="504.13"/><ellipse cx="271.9356" cy="520.13" fill="#ADD1B2" rx="11" ry="11" style="stroke:#181818;stroke-width:1.0;"/><path d="M274.9088,525.7731 Q274.3277,526.0719 273.6885,526.2213 Q273.0494,526.3707 272.3438,526.3707 Q269.837,526.3707 268.5171,524.7189 Q267.1973,523.067 267.1973,519.9459 Q267.1973,516.8165 268.5171,515.1647 Q269.837,513.5128 272.3438,513.5128 Q273.0494,513.5128 273.6968,513.6622 Q274.3443,513.8116 274.9088,514.1105 L274.9088,516.8331 Q274.2779,516.2521 273.6844,515.9823 Q273.0909,515.7125 272.46,515.7125 Q271.1153,515.7125 270.4305,516.7792 Q269.7457,517.8458 269.7457,519.9459 Q269.7457,522.0377 270.4305,523.1044 Q271.1153,524.171 272.46,524.171 Q273.0909,524.171 273.6844,523.9012 Q274.2779,523.6315 274.9088,523.0504 Z " fill="#000000"/><text fill="#000000" font-family="sans-serif" font-size="14" lengthAdjust="spacing" textLength="93.6045" x="292.4356" y="525.421">JsonResponse</text><line style="stroke:#181818;stroke-width:0.5;" x1="219.94" x2="426.0357" y1="536.13" y2="536.13"/><rect fill="none" height="6" style="stroke:#C82930;stroke-width:1.0;" width="6" x="226.94" y="546.8741"/><text fill="#000000" font-family="sans-serif" font-size="14" lengthAdjust="spacing" textLength="81.9424" x="238.94" y="553.6652">json: String;</text><line style="stroke:#181818;stroke-width:0.5;" x1="219.94" x2="426.0357" y1="560.6183" y2="560.6183"/><ellipse cx="229.94" cy="574.3624" fill="#84BE84" rx="3" ry="3" style="stroke:#038048;stroke-width:1.0;"/><text fill="#000000" font-family="sans-serif" font-size="14" lengthAdjust="spacing" textLength="95.4775" x="238.94" y="578.1534">json() : String;</text><ellipse cx="229.94" cy="590.8507" fill="#84BE84" rx="3" ry="3" style="stroke:#038048;stroke-width:1.0;"/><text fill="#000000" font-family="sans-serif" font-size="14" lengthAdjust="spacing" textLength="182.0957" x="238.94" y="594.6417">toJsonObject() : JsonObject</text></g><!--class LoginTokenDto--><g id="elem_LoginTokenDto"><rect codeLine="25" fill="#F1F1F1" height="80.9766" id="LoginTokenDto" rx="2.5" ry="2.5" style="stroke:#181818;stroke-width:0.5;" width="135.9746" x="7" y="338.42"/><ellipse cx="22" cy="354.42" fill="#ADD1B2" rx="11" ry="11" style="stroke:#181818;stroke-width:1.0;"/><path d="M24.9731,360.0631 Q24.3921,360.3619 23.7529,360.5113 Q23.1138,360.6607 22.4082,360.6607 Q19.9014,360.6607 18.5815,359.0089 Q17.2617,357.357 17.2617,354.2359 Q17.2617,351.1065 18.5815,349.4547 Q19.9014,347.8028 22.4082,347.8028 Q23.1138,347.8028 23.7612,347.9522 Q24.4087,348.1016 24.9731,348.4005 L24.9731,351.1231 Q24.3423,350.5421 23.7488,350.2723 Q23.1553,350.0025 22.5244,350.0025 Q21.1797,350.0025 20.4949,351.0692 Q19.8101,352.1358 19.8101,354.2359 Q19.8101,356.3277 20.4949,357.3944 Q21.1797,358.461 22.5244,358.461 Q23.1553,358.461 23.7488,358.1912 Q24.3423,357.9215 24.9731,357.3404 Z " fill="#000000"/><text fill="#000000" font-family="sans-serif" font-size="14" lengthAdjust="spacing" textLength="103.9746" x="36" y="359.711">LoginTokenDto</text><line style="stroke:#181818;stroke-width:0.5;" x1="8" x2="141.9746" y1="370.42" y2="370.42"/><rect fill="none" height="6" style="stroke:#C82930;stroke-width:1.0;" width="6" x="15" y="381.1641"/><text fill="#000000" font-family="sans-serif" font-size="14" lengthAdjust="spacing" textLength="91.7656" x="27" y="387.9552">token: String;</text><line style="stroke:#181818;stroke-width:0.5;" x1="8" x2="141.9746" y1="394.9083" y2="394.9083"/><ellipse cx="18" cy="408.6524" fill="#84BE84" rx="3" ry="3" style="stroke:#038048;stroke-width:1.0;"/><text fill="#000000" font-family="sans-serif" font-size="14" lengthAdjust="spacing" textLength="105.3008" x="27" y="412.4434">token() : String;</text></g><!--class AuthorisationController--><g id="elem_AuthorisationController"><rect codeLine="31" fill="#F1F1F1" height="97.4648" id="AuthorisationController" rx="2.5" ry="2.5" style="stroke:#181818;stroke-width:0.5;" width="367.3799" x="111.3" y="7"/><ellipse cx="210.6159" cy="23" fill="#ADD1B2" rx="11" ry="11" style="stroke:#181818;stroke-width:1.0;"/><path d="M213.5891,28.6431 Q213.008,28.9419 212.3688,29.0913 Q211.7297,29.2407 211.0241,29.2407 Q208.5173,29.2407 207.1975,27.5889 Q205.8776,25.937 205.8776,22.8159 Q205.8776,19.6865 207.1975,18.0347 Q208.5173,16.3828 211.0241,16.3828 Q211.7297,16.3828 212.3771,16.5322 Q213.0246,16.6816 213.5891,16.9805 L213.5891,19.7031 Q212.9582,19.1221 212.3647,18.8523 Q211.7712,18.5825 211.1403,18.5825 Q209.7956,18.5825 209.1108,19.6492 Q208.426,20.7158 208.426,22.8159 Q208.426,24.9077 209.1108,25.9744 Q209.7956,27.041 211.1403,27.041 Q211.7712,27.041 212.3647,26.7712 Q212.9582,26.5015 213.5891,25.9204 Z " fill="#000000"/><text fill="#000000" font-family="sans-serif" font-size="14" lengthAdjust="spacing" textLength="160.248" x="231.1159" y="28.291">AuthorisationController</text><line style="stroke:#181818;stroke-width:0.5;" x1="112.3" x2="477.6799" y1="39" y2="39"/><rect fill="none" height="6" style="stroke:#C82930;stroke-width:1.0;" width="6" x="119.3" y="49.7441"/><text fill="#000000" font-family="sans-serif" font-size="14" lengthAdjust="spacing" textLength="341.3799" x="131.3" y="56.5352">authorisationService : AuthorisationServiceFacade;</text><line style="stroke:#181818;stroke-width:0.5;" x1="112.3" x2="477.6799" y1="63.4883" y2="63.4883"/><ellipse cx="122.3" cy="77.2324" fill="#84BE84" rx="3" ry="3" style="stroke:#038048;stroke-width:1.0;"/><text fill="#000000" font-family="sans-serif" font-size="14" lengthAdjust="spacing" textLength="268.6934" x="131.3" y="81.0234">login(login: LoginDto) : ResponseEntity;</text><ellipse cx="122.3" cy="93.7207" fill="#84BE84" rx="3" ry="3" style="stroke:#038048;stroke-width:1.0;"/><text fill="#000000" font-family="sans-serif" font-size="14" lengthAdjust="spacing" textLength="279.5762" x="131.3" y="97.5117">isLoggedIn() : ResponseEntity&lt;Boolean&gt;;</text></g><!--class AuthorisationServiceFacade--><g id="elem_AuthorisationServiceFacade"><rect codeLine="38" fill="#F1F1F1" height="113.9531" id="AuthorisationServiceFacade" rx="2.5" ry="2.5" style="stroke:#181818;stroke-width:0.5;" width="332.4824" x="269.75" y="164.47"/><ellipse cx="338.6563" cy="180.47" fill="#ADD1B2" rx="11" ry="11" style="stroke:#181818;stroke-width:1.0;"/><path d="M341.6294,186.1131 Q341.0483,186.4119 340.4092,186.5613 Q339.77,186.7107 339.0645,186.7107 Q336.5576,186.7107 335.2378,185.0589 Q333.918,183.407 333.918,180.2859 Q333.918,177.1565 335.2378,175.5047 Q336.5576,173.8528 339.0645,173.8528 Q339.77,173.8528 340.4175,174.0022 Q341.0649,174.1516 341.6294,174.4505 L341.6294,177.1731 Q340.9985,176.5921 340.405,176.3223 Q339.8115,176.0525 339.1807,176.0525 Q337.8359,176.0525 337.1511,177.1192 Q336.4663,178.1858 336.4663,180.2859 Q336.4663,182.3777 337.1511,183.4444 Q337.8359,184.511 339.1807,184.511 Q339.8115,184.511 340.405,184.2412 Q340.9985,183.9715 341.6294,183.3904 Z " fill="#000000"/><text fill="#000000" font-family="sans-serif" font-size="14" lengthAdjust="spacing" textLength="186.1699" x="359.1563" y="185.761">AuthorisationServiceFacade</text><line style="stroke:#181818;stroke-width:0.5;" x1="270.75" x2="601.2324" y1="196.47" y2="196.47"/><rect fill="none" height="6" style="stroke:#C82930;stroke-width:1.0;" width="6" x="277.75" y="207.2141"/><text fill="#000000" font-family="sans-serif" font-size="14" lengthAdjust="spacing" textLength="196.6494" x="289.75" y="214.0052">client: IdentityProviderClient;</text><rect fill="none" height="6" style="stroke:#C82930;stroke-width:1.0;" width="6" x="277.75" y="223.7024"/><text fill="#000000" font-family="sans-serif" font-size="14" lengthAdjust="spacing" textLength="198.1875" x="289.75" y="230.4934">jdbcTemplate: JdbcTemplate;</text><line style="stroke:#181818;stroke-width:0.5;" x1="270.75" x2="601.2324" y1="237.4466" y2="237.4466"/><ellipse cx="280.75" cy="251.1907" fill="#84BE84" rx="3" ry="3" style="stroke:#038048;stroke-width:1.0;"/><text fill="#000000" font-family="sans-serif" font-size="14" lengthAdjust="spacing" textLength="269.7324" x="289.75" y="254.9817">login(login: LoginDto) : LoginTokenDto;</text><ellipse cx="280.75" cy="267.679" fill="#84BE84" rx="3" ry="3" style="stroke:#038048;stroke-width:1.0;"/><text fill="#000000" font-family="sans-serif" font-size="14" lengthAdjust="spacing" textLength="306.4824" x="289.75" y="271.47">isLoggedIn(token: LoginTokenDto) : boolean;</text></g><!--class IdentityProviderClient--><g id="elem_IdentityProviderClient"><rect codeLine="46" fill="#F1F1F1" height="80.9766" id="IdentityProviderClient" rx="2.5" ry="2.5" style="stroke:#181818;stroke-width:0.5;" width="515.7334" x="178.12" y="338.42"/><ellipse cx="358.5512" cy="354.42" fill="#ADD1B2" rx="11" ry="11" style="stroke:#181818;stroke-width:1.0;"/><path d="M361.5243,360.0631 Q360.9432,360.3619 360.3041,360.5113 Q359.6649,360.6607 358.9594,360.6607 Q356.4525,360.6607 355.1327,359.0089 Q353.8129,357.357 353.8129,354.2359 Q353.8129,351.1065 355.1327,349.4547 Q356.4525,347.8028 358.9594,347.8028 Q359.6649,347.8028 360.3124,347.9522 Q360.9598,348.1016 361.5243,348.4005 L361.5243,351.1231 Q360.8934,350.5421 360.2999,350.2723 Q359.7064,350.0025 359.0756,350.0025 Q357.7308,350.0025 357.046,351.0692 Q356.3612,352.1358 356.3612,354.2359 Q356.3612,356.3277 357.046,357.3944 Q357.7308,358.461 359.0756,358.461 Q359.7064,358.461 360.2999,358.1912 Q360.8934,357.9215 361.5243,357.3404 Z " fill="#000000"/><text fill="#000000" font-family="sans-serif" font-size="14" lengthAdjust="spacing" textLength="146.3711" x="379.0512" y="359.711">IdentityProviderClient</text><line style="stroke:#181818;stroke-width:0.5;" x1="179.12" x2="692.8534" y1="370.42" y2="370.42"/><line style="stroke:#181818;stroke-width:0.5;" x1="179.12" x2="692.8534" y1="378.42" y2="378.42"/><ellipse cx="189.12" cy="392.1641" fill="#84BE84" rx="3" ry="3" style="stroke:#038048;stroke-width:1.0;"/><text fill="#000000" font-family="sans-serif" font-size="14" lengthAdjust="spacing" textLength="403.2861" x="198.12" y="395.9552">login(login: LoginDto) : Result&lt;JsonResponse, Throwable&gt;;</text><ellipse cx="189.12" cy="408.6524" fill="#84BE84" rx="3" ry="3" style="stroke:#038048;stroke-width:1.0;"/><text fill="#000000" font-family="sans-serif" font-size="14" lengthAdjust="spacing" textLength="489.7334" x="198.12" y="412.4434">isLoggedIn(token: LoginTokenDto) : Result&lt;JsonResponse, Throwable&gt;;</text></g><!--class Result--><g id="elem_Result"><rect codeLine="51" fill="#F1F1F1" height="146.9297" id="Result" rx="2.5" ry="2.5" style="stroke:#181818;stroke-width:0.5;" width="170.9287" x="462.52" y="479.4"/><ellipse cx="510.0112" cy="495.4" fill="#ADD1B2" rx="11" ry="11" style="stroke:#181818;stroke-width:1.0;"/><path d="M512.9844,501.0431 Q512.4033,501.3419 511.7641,501.4913 Q511.125,501.6407 510.4194,501.6407 Q507.9126,501.6407 506.5928,499.9889 Q505.2729,498.337 505.2729,495.2159 Q505.2729,492.0865 506.5928,490.4347 Q507.9126,488.7828 510.4194,488.7828 Q511.125,488.7828 511.7724,488.9322 Q512.4199,489.0816 512.9844,489.3805 L512.9844,492.1031 Q512.3535,491.5221 511.76,491.2523 Q511.1665,490.9825 510.5356,490.9825 Q509.1909,490.9825 508.5061,492.0492 Q507.8213,493.1158 507.8213,495.2159 Q507.8213,497.3077 508.5061,498.3744 Q509.1909,499.441 510.5356,499.441 Q511.1665,499.441 511.76,499.1712 Q512.3535,498.9015 512.9844,498.3204 Z " fill="#000000"/><text fill="#000000" font-family="sans-serif" font-size="14" lengthAdjust="spacing" textLength="41.7607" x="530.5112" y="500.691">Result</text><rect fill="#FFFFFF" height="16.1328" style="stroke:#181818;stroke-width:1.0;stroke-dasharray:2.0,2.0;" width="23.6855" x="612.7632" y="476.4"/><text fill="#000000" font-family="sans-serif" font-size="12" font-style="italic" lengthAdjust="spacing" textLength="21.6855" x="613.7632" y="489.0016">T, E</text><line style="stroke:#181818;stroke-width:0.5;" x1="463.52" x2="632.4487" y1="511.4" y2="511.4"/><rect fill="none" height="6" style="stroke:#C82930;stroke-width:1.0;" width="6" x="470.52" y="522.1441"/><text fill="#000000" font-family="sans-serif" font-size="14" lengthAdjust="spacing" textLength="57.6543" x="482.52" y="528.9352">value: T;</text><rect fill="none" height="6" style="stroke:#C82930;stroke-width:1.0;" width="6" x="470.52" y="538.6324"/><text fill="#000000" font-family="sans-serif" font-size="14" lengthAdjust="spacing" textLength="54.4619" x="482.52" y="545.4234">error: E;</text><line style="stroke:#181818;stroke-width:0.5;" x1="463.52" x2="632.4487" y1="552.3766" y2="552.3766"/><ellipse cx="473.52" cy="566.1207" fill="#84BE84" rx="3" ry="3" style="stroke:#038048;stroke-width:1.0;"/><text fill="#000000" font-family="sans-serif" font-size="14" lengthAdjust="spacing" textLength="94.8623" x="482.52" y="569.9117">getValue() : T;</text><ellipse cx="473.52" cy="582.609" fill="#84BE84" rx="3" ry="3" style="stroke:#038048;stroke-width:1.0;"/><text fill="#000000" font-family="sans-serif" font-size="14" lengthAdjust="spacing" textLength="89.5508" x="482.52" y="586.4">getError() : E;</text><ellipse cx="473.52" cy="599.0973" fill="#84BE84" rx="3" ry="3" style="stroke:#038048;stroke-width:1.0;"/><text fill="#000000" font-family="sans-serif" font-size="14" lengthAdjust="spacing" textLength="125.6582" x="482.52" y="602.8883">isError() : boolean;</text><ellipse cx="473.52" cy="615.5855" fill="#84BE84" rx="3" ry="3" style="stroke:#038048;stroke-width:1.0;"/><text fill="#000000" font-family="sans-serif" font-size="14" lengthAdjust="spacing" textLength="144.9287" x="482.52" y="619.3766">isSuccess() : boolean;</text></g><!--class JdbcTemplate--><g id="elem_JdbcTemplate"><rect codeLine="61" fill="#F1F1F1" height="56.6211" id="JdbcTemplate" rx="2.5" ry="2.5" style="stroke:#181818;stroke-width:0.5;" width="124.4971" x="728.74" y="350.6"/><ellipse cx="743.74" cy="370.9105" fill="#ADD1B2" rx="11" ry="11" style="stroke:#181818;stroke-width:1.0;"/><path d="M746.7131,376.5536 Q746.1321,376.8524 745.4929,377.0019 Q744.8538,377.1513 744.1482,377.1513 Q741.6414,377.1513 740.3215,375.4994 Q739.0017,373.8476 739.0017,370.7265 Q739.0017,367.5971 740.3215,365.9452 Q741.6414,364.2934 744.1482,364.2934 Q744.8538,364.2934 745.5012,364.4428 Q746.1487,364.5922 746.7131,364.891 L746.7131,367.6137 Q746.0823,367.0326 745.4888,366.7628 Q744.8953,366.4931 744.2644,366.4931 Q742.9197,366.4931 742.2349,367.5597 Q741.5501,368.6264 741.5501,370.7265 Q741.5501,372.8183 742.2349,373.8849 Q742.9197,374.9516 744.2644,374.9516 Q744.8953,374.9516 745.4888,374.6818 Q746.0823,374.412 746.7131,373.831 Z " fill="#000000"/><text fill="#000000" font-family="sans-serif" font-size="12" font-style="italic" lengthAdjust="spacing" textLength="60.0645" x="773.9563" y="367.2016">&#171;External&#187;</text><text fill="#000000" font-family="sans-serif" font-size="14" lengthAdjust="spacing" textLength="92.4971" x="757.74" y="383.268">JdbcTemplate</text><line style="stroke:#181818;stroke-width:0.5;" x1="729.74" x2="852.2371" y1="391.2211" y2="391.2211"/><line style="stroke:#181818;stroke-width:0.5;" x1="729.74" x2="852.2371" y1="399.2211" y2="399.2211"/></g><!--link AuthorisationController to AuthorisationServiceFacade--><g id="link_AuthorisationController_AuthorisationServiceFacade"><path codeLine="64" d="M336.15,104.53 C352.24,123.22 366.905,140.2332 383.635,159.6632 " fill="none" id="AuthorisationController-to-AuthorisationServiceFacade" style="stroke:#181818;stroke-width:1.0;"/><polygon fill="#181818" points="387.55,164.21,384.7088,154.7799,384.2875,160.421,378.6464,159.9998,387.55,164.21" style="stroke:#181818;stroke-width:1.0;"/></g><!--link AuthorisationServiceFacade to IdentityProviderClient--><g id="link_AuthorisationServiceFacade_IdentityProviderClient"><path codeLine="65" d="M435.99,278.57 C435.99,298.23 435.99,313.89 435.99,331.95 " fill="none" id="AuthorisationServiceFacade-to-IdentityProviderClient" style="stroke:#181818;stroke-width:1.0;"/><polygon fill="#181818" points="435.99,337.95,439.99,328.95,435.99,332.95,431.99,328.95,435.99,337.95" style="stroke:#181818;stroke-width:1.0;"/></g><!--link AuthorisationServiceFacade to JdbcTemplate--><g id="link_AuthorisationServiceFacade_JdbcTemplate"><path codeLine="66" d="M574.12,278.81 C618.11,297.27 666.81,318.23 710.99,338.42 C719.16,342.16 722.3303,343.6139 730.7103,347.6739 " fill="none" id="AuthorisationServiceFacade-to-JdbcTemplate" style="stroke:#181818;stroke-width:1.0;"/><polygon fill="#181818" points="736.11,350.29,729.7546,342.7661,731.6103,348.11,726.2665,349.9657,736.11,350.29" style="stroke:#181818;stroke-width:1.0;"/></g><!--link AuthorisationController to LoginDto--><g id="link_AuthorisationController_LoginDto"><path codeLine="68" d="M254.12,104.53 C238.14,123.22 223.5888,140.2193 206.9788,159.6493 " fill="none" id="AuthorisationController-to-LoginDto" style="stroke:#181818;stroke-width:1.0;"/><polygon fill="#181818" points="203.08,164.21,211.9686,159.9682,206.329,160.4094,205.8877,154.7698,203.08,164.21" style="stroke:#181818;stroke-width:1.0;"/></g><!--link AuthorisationServiceFacade to LoginTokenDto--><g id="link_AuthorisationServiceFacade_LoginTokenDto"><path codeLine="69" d="M299.95,278.83 C255.52,297.5 206.04,318.59 160.99,338.42 C155.27,340.94 154.8295,341.1132 148.9095,343.7832 " fill="none" id="AuthorisationServiceFacade-to-LoginTokenDto" style="stroke:#181818;stroke-width:1.0;"/><polygon fill="#181818" points="143.44,346.25,153.2887,346.1961,147.9979,344.1943,149.9996,338.9035,143.44,346.25" style="stroke:#181818;stroke-width:1.0;"/></g><!--link IdentityProviderClient to JsonResponse--><g id="link_IdentityProviderClient_JsonResponse"><path codeLine="70" d="M409.78,419.79 C393.28,444.89 375.1958,472.4263 357.7758,498.9263 " fill="none" id="IdentityProviderClient-to-JsonResponse" style="stroke:#181818;stroke-width:1.0;"/><polygon fill="#181818" points="354.48,503.94,362.7662,498.6166,357.2265,499.7619,356.0812,494.2222,354.48,503.94" style="stroke:#181818;stroke-width:1.0;"/></g><!--link IdentityProviderClient to Result--><g id="link_IdentityProviderClient_Result"><path codeLine="71" d="M461.96,419.79 C473.47,437.45 484.0956,453.7722 497.3356,474.1022 " fill="none" id="IdentityProviderClient-to-Result" style="stroke:#181818;stroke-width:1.0;"/><polygon fill="#181818" points="500.61,479.13,499.0503,469.4054,497.8814,474.9402,492.3466,473.7712,500.61,479.13" style="stroke:#181818;stroke-width:1.0;"/></g><!--link JsonResponse to JsonObject--><g id="link_JsonResponse_JsonObject"><path codeLine="73" d="M322.99,601.8 C322.99,629.38 322.99,657.03 322.99,680.18 " fill="none" id="JsonResponse-to-JsonObject" style="stroke:#181818;stroke-width:1.0;"/><polygon fill="#181818" points="322.99,686.18,326.99,677.18,322.99,681.18,318.99,677.18,322.99,686.18" style="stroke:#181818;stroke-width:1.0;"/></g><!--SRC=[bLHDRzim3BtxL_3M36tw0zmWmzPwM8i16vPWXzractLaov8XqycQOVzzbEhFrKam7sA8UezyV6Hy1HaMveWQZAO3scflXSZ2u0e-6uIZiHda26ZtnbX81RbJB7D0PXnaVfIPr1b83IcwQr6JRH9g6WjxeJqAVn5QZL1p4faWQ8daq3jK2AAgb4m4IJuRV2OGp2A4IjGrwlSiuq4Io1fAcMje96N88Wj65Cf189KYiwBaDu8iG0lEIr2AWYix1UvKMKE6NYfNC-P-Io4AkkNSFvcKk3pBDitoMIGYnTkgAHNubXrVQia2rRyrWy1puOjX3nx8mEy0-5b2mwrgKM886x9iprqRTqqTZ4s7kB-uxWcBTp3bNFUSoTMVhlHJRVJNECU4OBMAlD52hTUiP0BvZdLbD2ll5EOSVAF21MSKa1cg-ElXE5Jn7cmDkpusWbpWJHqVdU_dGqCxOsND2s7qFM-aDKgXxHEAyVscNQXmIcl3d_ma-wBA2Lputx2VcDFGUHDfalJIDIrhncIOFhuAdO9M7urHAFJwbFA9X5vyeYHg2k4nHP_ccpLxcQAzz_5kIV8qJhPOLaeGBz3Jw7IvbyaKPbffvp61ELxysi-edNcDRIldtMmKhSPBTmFRdJK74IjS_uUcYvbwhIroUmFHkZTxBrJ3_cqxMz5QOqE8UXCpf1yEu-UxlHkYaKFwQ3J87OAzLztLfaaIhEl5l97Z0SxyHqyj_7AvFhDImPbjSypvwLrYZQMULzPD_5B6oL234plbIu-cV0xtEkeWc7pKkWJjD-al]--></g></svg>