<svg xmlns="http://www.w3.org/2000/svg" xmlns:xlink="http://www.w3.org/1999/xlink" contentStyleType="text/css" height="575px" preserveAspectRatio="none" style="width:1432px;height:575px;background:#FFFFFF;" version="1.1" viewBox="0 0 1432 575" width="1432px" zoomAndPan="magnify"><defs/><g><line style="stroke:#181818;stroke-width:0.5;stroke-dasharray:5.0,5.0;" x1="23" x2="23" y1="81.4883" y2="494.8809"/><line style="stroke:#181818;stroke-width:0.5;stroke-dasharray:5.0,5.0;" x1="307.8525" x2="307.8525" y1="81.4883" y2="494.8809"/><line style="stroke:#181818;stroke-width:0.5;stroke-dasharray:5.0,5.0;" x1="953.7275" x2="953.7275" y1="159.7871" y2="494.8809"/><line style="stroke:#181818;stroke-width:0.5;stroke-dasharray:5.0,5.0;" x1="1102.4961" x2="1102.4961" y1="81.4883" y2="494.8809"/><line style="stroke:#181818;stroke-width:0.5;stroke-dasharray:5.0,5.0;" x1="1369.021" x2="1369.021" y1="81.4883" y2="494.8809"/><text fill="#000000" font-family="sans-serif" font-size="14" lengthAdjust="spacing" textLength="30.3652" x="5" y="78.5352">User</text><ellipse cx="23.1826" cy="13.5" fill="#E2E2F0" rx="8" ry="8" style="stroke:#181818;stroke-width:0.5;"/><path d="M23.1826,21.5 L23.1826,48.5 M10.1826,29.5 L36.1826,29.5 M23.1826,48.5 L10.1826,63.5 M23.1826,48.5 L36.1826,63.5 " fill="none" style="stroke:#181818;stroke-width:0.5;"/><text fill="#000000" font-family="sans-serif" font-size="14" lengthAdjust="spacing" textLength="30.3652" x="5" y="507.416">User</text><ellipse cx="23.1826" cy="518.8691" fill="#E2E2F0" rx="8" ry="8" style="stroke:#181818;stroke-width:0.5;"/><path d="M23.1826,526.8691 L23.1826,553.8691 M10.1826,534.8691 L36.1826,534.8691 M23.1826,553.8691 L10.1826,568.8691 M23.1826,553.8691 L36.1826,568.8691 " fill="none" style="stroke:#181818;stroke-width:0.5;"/><rect fill="#E2E2F0" height="46.9766" rx="2.5" ry="2.5" style="stroke:#181818;stroke-width:0.5;" width="94.9854" x="260.8525" y="33.5117"/><text fill="#000000" font-family="sans-serif" font-size="14" lengthAdjust="spacing" textLength="29.7842" x="293.4531" y="54.0469">app:</text><text fill="#000000" font-family="sans-serif" font-size="14" lengthAdjust="spacing" textLength="80.9854" x="267.8525" y="70.5352">TripTopApp</text><rect fill="#E2E2F0" height="46.9766" rx="2.5" ry="2.5" style="stroke:#181818;stroke-width:0.5;" width="94.9854" x="260.8525" y="493.8809"/><text fill="#000000" font-family="sans-serif" font-size="14" lengthAdjust="spacing" textLength="29.7842" x="293.4531" y="514.416">app:</text><text fill="#000000" font-family="sans-serif" font-size="14" lengthAdjust="spacing" textLength="80.9854" x="267.8525" y="530.9043">TripTopApp</text><rect fill="#E2E2F0" height="46.9766" rx="2.5" ry="2.5" style="stroke:#181818;stroke-width:0.5;" width="102.7578" x="902.7275" y="493.8809"/><text fill="#000000" font-family="sans-serif" font-size="14" lengthAdjust="spacing" textLength="88.7578" x="909.7275" y="514.416">hotelActivity:</text><text fill="#000000" font-family="sans-serif" font-size="14" lengthAdjust="spacing" textLength="85.9277" x="911.1426" y="530.9043">HotelActivity</text><rect fill="#E2E2F0" height="46.9766" rx="2.5" ry="2.5" style="stroke:#181818;stroke-width:0.5;" width="140" x="1032.4961" y="33.5117"/><text fill="#000000" font-family="sans-serif" font-size="14" lengthAdjust="spacing" textLength="51.3584" x="1076.8169" y="54.0469">service:</text><text fill="#000000" font-family="sans-serif" font-size="14" lengthAdjust="spacing" textLength="126" x="1039.4961" y="70.5352">TripAdvisorService</text><rect fill="#E2E2F0" height="46.9766" rx="2.5" ry="2.5" style="stroke:#181818;stroke-width:0.5;" width="140" x="1032.4961" y="493.8809"/><text fill="#000000" font-family="sans-serif" font-size="14" lengthAdjust="spacing" textLength="51.3584" x="1076.8169" y="514.416">service:</text><text fill="#000000" font-family="sans-serif" font-size="14" lengthAdjust="spacing" textLength="126" x="1039.4961" y="530.9043">TripAdvisorService</text><rect fill="#E2E2F0" height="46.9766" rx="2.5" ry="2.5" style="stroke:#181818;stroke-width:0.5;" width="114.0986" x="1312.021" y="33.5117"/><text fill="#000000" font-family="sans-serif" font-size="14" lengthAdjust="spacing" textLength="25.0195" x="1356.5605" y="54.0469">api:</text><text fill="#000000" font-family="sans-serif" font-size="14" lengthAdjust="spacing" textLength="100.0986" x="1319.021" y="70.5352">TripAdvisorAPI</text><rect fill="#E2E2F0" height="46.9766" rx="2.5" ry="2.5" style="stroke:#181818;stroke-width:0.5;" width="114.0986" x="1312.021" y="493.8809"/><text fill="#000000" font-family="sans-serif" font-size="14" lengthAdjust="spacing" textLength="25.0195" x="1356.5605" y="514.416">api:</text><text fill="#000000" font-family="sans-serif" font-size="14" lengthAdjust="spacing" textLength="100.0986" x="1319.021" y="530.9043">TripAdvisorAPI</text><polygon fill="#181818" points="296.3452,108.7988,306.3452,112.7988,296.3452,116.7988,300.3452,112.7988" style="stroke:#181818;stroke-width:1.0;"/><line style="stroke:#181818;stroke-width:1.0;" x1="23.1826" x2="302.3452" y1="112.7988" y2="112.7988"/><text fill="#000000" font-family="sans-serif" font-size="13" font-weight="bold" lengthAdjust="spacing" textLength="8.5757" x="30.1826" y="108.0566">1</text><text fill="#000000" font-family="sans-serif" font-size="13" lengthAdjust="spacing" textLength="248.5869" x="42.7583" y="108.0566">searchHotels(geoId, checkIn, checkOut)</text><polygon fill="#181818" points="890.7275,138.1094,900.7275,142.1094,890.7275,146.1094,894.7275,142.1094" style="stroke:#181818;stroke-width:1.0;"/><line style="stroke:#181818;stroke-width:1.0;" x1="308.3452" x2="896.7275" y1="142.1094" y2="142.1094"/><text fill="#000000" font-family="sans-serif" font-size="13" font-weight="bold" lengthAdjust="spacing" textLength="8.5757" x="315.3452" y="137.3672">2</text><text fill="#000000" font-family="sans-serif" font-size="13" lengthAdjust="spacing" textLength="557.8066" x="327.9209" y="137.3672">hotelActivity = new HotelActivity(pageNumber, currencyCode, geoId, checkIn, checkOut)</text><rect fill="#E2E2F0" height="46.9766" rx="2.5" ry="2.5" style="stroke:#181818;stroke-width:0.5;" width="102.7578" x="902.7275" y="120.7988"/><text fill="#000000" font-family="sans-serif" font-size="14" lengthAdjust="spacing" textLength="88.7578" x="909.7275" y="141.334">hotelActivity:</text><text fill="#000000" font-family="sans-serif" font-size="14" lengthAdjust="spacing" textLength="85.9277" x="911.1426" y="157.8223">HotelActivity</text><polygon fill="#181818" points="1090.4961,196.0859,1100.4961,200.0859,1090.4961,204.0859,1094.4961,200.0859" style="stroke:#181818;stroke-width:1.0;"/><line style="stroke:#181818;stroke-width:1.0;" x1="308.3452" x2="1096.4961" y1="200.0859" y2="200.0859"/><text fill="#000000" font-family="sans-serif" font-size="13" font-weight="bold" lengthAdjust="spacing" textLength="8.5757" x="315.3452" y="195.3438">3</text><text fill="#000000" font-family="sans-serif" font-size="13" lengthAdjust="spacing" textLength="174.2432" x="327.9209" y="195.3438">searchActivity(hotelActivity)</text><polygon fill="#181818" points="965.1064,225.3965,955.1064,229.3965,965.1064,233.3965,961.1064,229.3965" style="stroke:#181818;stroke-width:1.0;"/><line style="stroke:#181818;stroke-width:1.0;" x1="959.1064" x2="1101.4961" y1="229.3965" y2="229.3965"/><text fill="#000000" font-family="sans-serif" font-size="13" font-weight="bold" lengthAdjust="spacing" textLength="8.5757" x="971.1064" y="224.6543">4</text><text fill="#000000" font-family="sans-serif" font-size="13" lengthAdjust="spacing" textLength="84.8174" x="983.6821" y="224.6543">getEndpoint()</text><polygon fill="#181818" points="1090.4961,254.707,1100.4961,258.707,1090.4961,262.707,1094.4961,258.707" style="stroke:#181818;stroke-width:1.0;"/><line style="stroke:#181818;stroke-width:1.0;stroke-dasharray:2.0,2.0;" x1="954.1064" x2="1096.4961" y1="258.707" y2="258.707"/><text fill="#000000" font-family="sans-serif" font-size="13" font-weight="bold" lengthAdjust="spacing" textLength="8.5757" x="961.1064" y="253.9648">5</text><text fill="#000000" font-family="sans-serif" font-size="13" lengthAdjust="spacing" textLength="56.3481" x="973.6821" y="253.9648">endpoint</text><polygon fill="#181818" points="965.1064,284.0176,955.1064,288.0176,965.1064,292.0176,961.1064,288.0176" style="stroke:#181818;stroke-width:1.0;"/><line style="stroke:#181818;stroke-width:1.0;" x1="959.1064" x2="1101.4961" y1="288.0176" y2="288.0176"/><text fill="#000000" font-family="sans-serif" font-size="13" font-weight="bold" lengthAdjust="spacing" textLength="8.5757" x="971.1064" y="283.2754">6</text><text fill="#000000" font-family="sans-serif" font-size="13" lengthAdjust="spacing" textLength="111.814" x="983.6821" y="283.2754">getQueryParams()</text><polygon fill="#181818" points="1090.4961,313.3281,1100.4961,317.3281,1090.4961,321.3281,1094.4961,317.3281" style="stroke:#181818;stroke-width:1.0;"/><line style="stroke:#181818;stroke-width:1.0;stroke-dasharray:2.0,2.0;" x1="954.1064" x2="1096.4961" y1="317.3281" y2="317.3281"/><text fill="#000000" font-family="sans-serif" font-size="13" font-weight="bold" lengthAdjust="spacing" textLength="8.5757" x="961.1064" y="312.5859">7</text><text fill="#000000" font-family="sans-serif" font-size="13" lengthAdjust="spacing" textLength="81.231" x="973.6821" y="312.5859">queryParams</text><line style="stroke:#181818;stroke-width:1.0;" x1="1102.4961" x2="1144.4961" y1="346.6387" y2="346.6387"/><line style="stroke:#181818;stroke-width:1.0;" x1="1144.4961" x2="1144.4961" y1="346.6387" y2="359.6387"/><line style="stroke:#181818;stroke-width:1.0;" x1="1103.4961" x2="1144.4961" y1="359.6387" y2="359.6387"/><polygon fill="#181818" points="1113.4961,355.6387,1103.4961,359.6387,1113.4961,363.6387,1109.4961,359.6387" style="stroke:#181818;stroke-width:1.0;"/><text fill="#000000" font-family="sans-serif" font-size="13" font-weight="bold" lengthAdjust="spacing" textLength="8.5757" x="1109.4961" y="341.8965">8</text><text fill="#000000" font-family="sans-serif" font-size="13" lengthAdjust="spacing" textLength="239.9985" x="1122.0718" y="341.8965">uri = buildUri(endpoint, queryParams)</text><polygon fill="#181818" points="1357.0703,384.9492,1367.0703,388.9492,1357.0703,392.9492,1361.0703,388.9492" style="stroke:#181818;stroke-width:1.0;"/><line style="stroke:#181818;stroke-width:1.0;" x1="1102.4961" x2="1363.0703" y1="388.9492" y2="388.9492"/><text fill="#000000" font-family="sans-serif" font-size="13" font-weight="bold" lengthAdjust="spacing" textLength="8.5757" x="1109.4961" y="384.207">9</text><text fill="#000000" font-family="sans-serif" font-size="13" lengthAdjust="spacing" textLength="200.1987" x="1122.0718" y="384.207">HTTP GET Request(uri, headers)</text><polygon fill="#181818" points="1113.4961,414.2598,1103.4961,418.2598,1113.4961,422.2598,1109.4961,418.2598" style="stroke:#181818;stroke-width:1.0;"/><line style="stroke:#181818;stroke-width:1.0;stroke-dasharray:2.0,2.0;" x1="1107.4961" x2="1368.0703" y1="418.2598" y2="418.2598"/><text fill="#000000" font-family="sans-serif" font-size="13" font-weight="bold" lengthAdjust="spacing" textLength="17.1514" x="1119.4961" y="413.5176">10</text><text fill="#000000" font-family="sans-serif" font-size="13" lengthAdjust="spacing" textLength="95.0562" x="1140.6475" y="413.5176">JSON Response</text><polygon fill="#181818" points="319.3452,443.5703,309.3452,447.5703,319.3452,451.5703,315.3452,447.5703" style="stroke:#181818;stroke-width:1.0;"/><line style="stroke:#181818;stroke-width:1.0;stroke-dasharray:2.0,2.0;" x1="313.3452" x2="1101.4961" y1="447.5703" y2="447.5703"/><text fill="#000000" font-family="sans-serif" font-size="13" font-weight="bold" lengthAdjust="spacing" textLength="17.1514" x="325.3452" y="442.8281">11</text><text fill="#000000" font-family="sans-serif" font-size="13" lengthAdjust="spacing" textLength="118.79" x="346.4966" y="442.8281">hotelSearchResults</text><polygon fill="#181818" points="34.1826,472.8809,24.1826,476.8809,34.1826,480.8809,30.1826,476.8809" style="stroke:#181818;stroke-width:1.0;"/><line style="stroke:#181818;stroke-width:1.0;stroke-dasharray:2.0,2.0;" x1="28.1826" x2="307.3452" y1="476.8809" y2="476.8809"/><text fill="#000000" font-family="sans-serif" font-size="13" font-weight="bold" lengthAdjust="spacing" textLength="17.1514" x="40.1826" y="472.1387">12</text><text fill="#000000" font-family="sans-serif" font-size="13" lengthAdjust="spacing" textLength="118.79" x="61.334" y="472.1387">hotelSearchResults</text><!--SRC=[VP9BRi8m48RtFeN5Af6I2w2sKbIXGXT0IzXrOvmHiGgsExQfk7qdmT0OjTdPqVS_Pc8HlD7Xk0DaJ4Xla6yTdQr0hwIoGdi-4TPEFtIDojR6LjPEk72SFgPKQpmSAkdLIVapyVFXlPSaH2gcp9EI46EgvgISmStbOw-Dm7qnbIggzIAMKunrW_3ogMiw9Rr0sVQTNBO7isWABbkGdmiT3wlWSyOaWl1mLvKSEgDqmlJA7xc6RvuCdLcnXsM_NCe8YA3b-TaqKF2H1Z7ikf7O_EQPfEOiOd_KsuEVwSOQfNsMixHiEGo0IB5nixS0U5uB54StxlVr2oQMDo2WedNjWZeqMrJPDRyOAlD4slreFg_hDN-PrVmT27G-8v-2jo0QGEA9INkyRbPBOfqrsi70xlea-X4s_NQ92WVlBa_ceIp_1Nu0]--></g></svg>