<svg xmlns="http://www.w3.org/2000/svg" xmlns:xlink="http://www.w3.org/1999/xlink" contentStyleType="text/css" height="798px" preserveAspectRatio="none" style="width:1656px;height:798px;background:#FFFFFF;" version="1.1" viewBox="0 0 1656 798" width="1656px" zoomAndPan="magnify"><title>Sequentie diagram: Alternatieve bouwstenen aanbieden</title><defs/><g><text fill="#000000" font-family="sans-serif" font-size="14" font-weight="bold" lengthAdjust="spacing" textLength="401.584" x="628.9282" y="28.5352">Sequentie diagram: Alternatieve bouwstenen aanbieden</text><rect fill="none" height="267.1055" style="stroke:#000000;stroke-width:1.5;" width="1640.4404" x="10" y="138.4648"/><rect fill="none" height="267.1055" style="stroke:#000000;stroke-width:1.5;" width="1640.4404" x="10" y="419.5703"/><line style="stroke:#181818;stroke-width:0.5;stroke-dasharray:5.0,5.0;" x1="50" x2="50" y1="121.4648" y2="703.6758"/><line style="stroke:#181818;stroke-width:0.5;stroke-dasharray:5.0,5.0;" x1="528.0332" x2="528.0332" y1="121.4648" y2="703.6758"/><line style="stroke:#181818;stroke-width:0.5;stroke-dasharray:5.0,5.0;" x1="725.2813" x2="725.2813" y1="121.4648" y2="703.6758"/><line style="stroke:#181818;stroke-width:0.5;stroke-dasharray:5.0,5.0;" x1="1042.875" x2="1042.875" y1="121.4648" y2="703.6758"/><line style="stroke:#181818;stroke-width:0.5;stroke-dasharray:5.0,5.0;" x1="1323.9551" x2="1323.9551" y1="121.4648" y2="703.6758"/><line style="stroke:#181818;stroke-width:0.5;stroke-dasharray:5.0,5.0;" x1="1459.5596" x2="1459.5596" y1="121.4648" y2="703.6758"/><line style="stroke:#181818;stroke-width:0.5;stroke-dasharray:5.0,5.0;" x1="1590.9434" x2="1590.9434" y1="121.4648" y2="703.6758"/><text fill="#000000" font-family="sans-serif" font-size="14" lengthAdjust="spacing" textLength="55.0293" x="20" y="118.5117">Reiziger</text><ellipse cx="50.5146" cy="53.4766" fill="#E2E2F0" rx="8" ry="8" style="stroke:#181818;stroke-width:0.5;"/><path d="M50.5146,61.4766 L50.5146,88.4766 M37.5146,69.4766 L63.5146,69.4766 M50.5146,88.4766 L37.5146,103.4766 M50.5146,88.4766 L63.5146,103.4766 " fill="none" style="stroke:#181818;stroke-width:0.5;"/><text fill="#000000" font-family="sans-serif" font-size="14" lengthAdjust="spacing" textLength="55.0293" x="20" y="716.2109">Reiziger</text><ellipse cx="50.5146" cy="727.6641" fill="#E2E2F0" rx="8" ry="8" style="stroke:#181818;stroke-width:0.5;"/><path d="M50.5146,735.6641 L50.5146,762.6641 M37.5146,743.6641 L63.5146,743.6641 M50.5146,762.6641 L37.5146,777.6641 M50.5146,762.6641 L63.5146,777.6641 " fill="none" style="stroke:#181818;stroke-width:0.5;"/><rect fill="#E2E2F0" height="46.9766" rx="2.5" ry="2.5" style="stroke:#181818;stroke-width:0.5;" width="174.248" x="441.0332" y="73.4883"/><text fill="#000000" font-family="sans-serif" font-size="14" lengthAdjust="spacing" textLength="70.0752" x="493.1196" y="94.0234">controller:</text><text fill="#000000" font-family="sans-serif" font-size="14" lengthAdjust="spacing" textLength="160.248" x="448.0332" y="110.5117">AuthorisationController</text><rect fill="#E2E2F0" height="46.9766" rx="2.5" ry="2.5" style="stroke:#181818;stroke-width:0.5;" width="174.248" x="441.0332" y="702.6758"/><text fill="#000000" font-family="sans-serif" font-size="14" lengthAdjust="spacing" textLength="70.0752" x="493.1196" y="723.2109">controller:</text><text fill="#000000" font-family="sans-serif" font-size="14" lengthAdjust="spacing" textLength="160.248" x="448.0332" y="739.6992">AuthorisationController</text><rect fill="#E2E2F0" height="46.9766" rx="2.5" ry="2.5" style="stroke:#181818;stroke-width:0.5;" width="200.1699" x="625.2813" y="73.4883"/><text fill="#000000" font-family="sans-serif" font-size="14" lengthAdjust="spacing" textLength="51.3584" x="699.687" y="94.0234">service:</text><text fill="#000000" font-family="sans-serif" font-size="14" lengthAdjust="spacing" textLength="186.1699" x="632.2813" y="110.5117">AuthorisationServiceFacade</text><rect fill="#E2E2F0" height="46.9766" rx="2.5" ry="2.5" style="stroke:#181818;stroke-width:0.5;" width="200.1699" x="625.2813" y="702.6758"/><text fill="#000000" font-family="sans-serif" font-size="14" lengthAdjust="spacing" textLength="51.3584" x="699.687" y="723.2109">service:</text><text fill="#000000" font-family="sans-serif" font-size="14" lengthAdjust="spacing" textLength="186.1699" x="632.2813" y="739.6992">AuthorisationServiceFacade</text><rect fill="#E2E2F0" height="46.9766" rx="2.5" ry="2.5" style="stroke:#181818;stroke-width:0.5;" width="160.3711" x="962.875" y="73.4883"/><text fill="#000000" font-family="sans-serif" font-size="14" lengthAdjust="spacing" textLength="41.4189" x="1022.3511" y="94.0234">client:</text><text fill="#000000" font-family="sans-serif" font-size="14" lengthAdjust="spacing" textLength="146.3711" x="969.875" y="110.5117">IdentityProviderClient</text><rect fill="#E2E2F0" height="46.9766" rx="2.5" ry="2.5" style="stroke:#181818;stroke-width:0.5;" width="160.3711" x="962.875" y="702.6758"/><text fill="#000000" font-family="sans-serif" font-size="14" lengthAdjust="spacing" textLength="41.4189" x="1022.3511" y="723.2109">client:</text><text fill="#000000" font-family="sans-serif" font-size="14" lengthAdjust="spacing" textLength="146.3711" x="969.875" y="739.6992">IdentityProviderClient</text><rect fill="#E2E2F0" height="46.9766" rx="2.5" ry="2.5" style="stroke:#181818;stroke-width:0.5;" width="107.6045" x="1270.9551" y="73.4883"/><text fill="#000000" font-family="sans-serif" font-size="14" lengthAdjust="spacing" textLength="66.1309" x="1291.6919" y="94.0234">response:</text><text fill="#000000" font-family="sans-serif" font-size="14" lengthAdjust="spacing" textLength="93.6045" x="1277.9551" y="110.5117">JsonResponse</text><rect fill="#E2E2F0" height="46.9766" rx="2.5" ry="2.5" style="stroke:#181818;stroke-width:0.5;" width="107.6045" x="1270.9551" y="702.6758"/><text fill="#000000" font-family="sans-serif" font-size="14" lengthAdjust="spacing" textLength="66.1309" x="1291.6919" y="723.2109">response:</text><text fill="#000000" font-family="sans-serif" font-size="14" lengthAdjust="spacing" textLength="93.6045" x="1277.9551" y="739.6992">JsonResponse</text><rect fill="#E2E2F0" height="46.9766" rx="2.5" ry="2.5" style="stroke:#181818;stroke-width:0.5;" width="143.3838" x="1388.5596" y="73.4883"/><text fill="#000000" font-family="sans-serif" font-size="14" lengthAdjust="spacing" textLength="85.0664" x="1417.7183" y="94.0234">external api:</text><text fill="#000000" font-family="sans-serif" font-size="14" lengthAdjust="spacing" textLength="129.3838" x="1395.5596" y="110.5117">IdentityProviderApi</text><rect fill="#E2E2F0" height="46.9766" rx="2.5" ry="2.5" style="stroke:#181818;stroke-width:0.5;" width="143.3838" x="1388.5596" y="702.6758"/><text fill="#000000" font-family="sans-serif" font-size="14" lengthAdjust="spacing" textLength="85.0664" x="1417.7183" y="723.2109">external api:</text><text fill="#000000" font-family="sans-serif" font-size="14" lengthAdjust="spacing" textLength="129.3838" x="1395.5596" y="739.6992">IdentityProviderApi</text><text fill="#000000" font-family="sans-serif" font-size="14" lengthAdjust="spacing" textLength="22.0527" x="1577.1655" y="102.0234">db:</text><text fill="#000000" font-family="sans-serif" font-size="14" lengthAdjust="spacing" textLength="92.4971" x="1541.9434" y="118.5117">JdbcTemplate</text><path d="M1573.1919,52.4883 C1573.1919,42.4883 1591.1919,42.4883 1591.1919,42.4883 C1591.1919,42.4883 1609.1919,42.4883 1609.1919,52.4883 L1609.1919,78.4883 C1609.1919,88.4883 1591.1919,88.4883 1591.1919,88.4883 C1591.1919,88.4883 1573.1919,88.4883 1573.1919,78.4883 L1573.1919,52.4883 " fill="#E2E2F0" style="stroke:#181818;stroke-width:1.5;"/><path d="M1573.1919,52.4883 C1573.1919,62.4883 1591.1919,62.4883 1591.1919,62.4883 C1591.1919,62.4883 1609.1919,62.4883 1609.1919,52.4883 " fill="none" style="stroke:#181818;stroke-width:1.5;"/><text fill="#000000" font-family="sans-serif" font-size="14" lengthAdjust="spacing" textLength="22.0527" x="1577.1655" y="716.2109">db:</text><text fill="#000000" font-family="sans-serif" font-size="14" lengthAdjust="spacing" textLength="92.4971" x="1541.9434" y="732.6992">JdbcTemplate</text><path d="M1573.1919,745.6523 C1573.1919,735.6523 1591.1919,735.6523 1591.1919,735.6523 C1591.1919,735.6523 1609.1919,735.6523 1609.1919,745.6523 L1609.1919,771.6523 C1609.1919,781.6523 1591.1919,781.6523 1591.1919,781.6523 C1591.1919,781.6523 1573.1919,781.6523 1573.1919,771.6523 L1573.1919,745.6523 " fill="#E2E2F0" style="stroke:#181818;stroke-width:1.5;"/><path d="M1573.1919,745.6523 C1573.1919,755.6523 1591.1919,755.6523 1591.1919,755.6523 C1591.1919,755.6523 1609.1919,755.6523 1609.1919,745.6523 " fill="none" style="stroke:#181818;stroke-width:1.5;"/><path d="M10,138.4648 L113.6841,138.4648 L113.6841,145.7754 L103.6841,155.7754 L10,155.7754 L10,138.4648 " fill="#EEEEEE" style="stroke:#000000;stroke-width:1.5;"/><rect fill="none" height="267.1055" style="stroke:#000000;stroke-width:1.5;" width="1640.4404" x="10" y="138.4648"/><text fill="#000000" font-family="sans-serif" font-size="13" font-weight="bold" lengthAdjust="spacing" textLength="58.6841" x="25" y="152.0332">Inloggen</text><polygon fill="#181818" points="516.1572,188.3965,526.1572,192.3965,516.1572,196.3965,520.1572,192.3965" style="stroke:#181818;stroke-width:1.0;"/><line style="stroke:#181818;stroke-width:1.0;" x1="50.5146" x2="522.1572" y1="192.3965" y2="192.3965"/><text fill="#000000" font-family="sans-serif" font-size="13" font-weight="bold" lengthAdjust="spacing" textLength="8.5757" x="57.5146" y="179.999">1</text><text fill="#000000" font-family="sans-serif" font-size="13" lengthAdjust="spacing" textLength="165.6484" x="70.0903" y="172.3438">POST /authorisation/login</text><text fill="#000000" font-family="sans-serif" font-size="13" lengthAdjust="spacing" textLength="401.1909" x="86.5435" y="187.6543">loginDto = { "username":"edevries", "password":"3g2Rw9sT1x" }</text><polygon fill="#181818" points="713.3662,217.707,723.3662,221.707,713.3662,225.707,717.3662,221.707" style="stroke:#181818;stroke-width:1.0;"/><line style="stroke:#181818;stroke-width:1.0;" x1="528.1572" x2="719.3662" y1="221.707" y2="221.707"/><text fill="#000000" font-family="sans-serif" font-size="13" font-weight="bold" lengthAdjust="spacing" textLength="8.5757" x="535.1572" y="216.9648">2</text><text fill="#000000" font-family="sans-serif" font-size="13" lengthAdjust="spacing" textLength="94.3896" x="547.7329" y="216.9648">login(loginDto)</text><polygon fill="#181818" points="1031.0605,247.0176,1041.0605,251.0176,1031.0605,255.0176,1035.0605,251.0176" style="stroke:#181818;stroke-width:1.0;"/><line style="stroke:#181818;stroke-width:1.0;" x1="725.3662" x2="1037.0605" y1="251.0176" y2="251.0176"/><text fill="#000000" font-family="sans-serif" font-size="13" font-weight="bold" lengthAdjust="spacing" textLength="8.5757" x="732.3662" y="246.2754">3</text><text fill="#000000" font-family="sans-serif" font-size="13" lengthAdjust="spacing" textLength="148.8271" x="744.9419" y="246.2754">result = login(loginDto)</text><polygon fill="#181818" points="1448.2515,276.3281,1458.2515,280.3281,1448.2515,284.3281,1452.2515,280.3281" style="stroke:#181818;stroke-width:1.0;"/><line style="stroke:#181818;stroke-width:1.0;" x1="1043.0605" x2="1454.2515" y1="280.3281" y2="280.3281"/><text fill="#000000" font-family="sans-serif" font-size="13" font-weight="bold" lengthAdjust="spacing" textLength="8.5757" x="1050.0605" y="275.5859">4</text><text fill="#000000" font-family="sans-serif" font-size="13" lengthAdjust="spacing" textLength="163.8647" x="1062.6362" y="275.5859">response = UniRest.post()</text><polygon fill="#181818" points="1312.7573,305.6387,1322.7573,309.6387,1312.7573,313.6387,1316.7573,309.6387" style="stroke:#181818;stroke-width:1.0;"/><line style="stroke:#181818;stroke-width:1.0;" x1="1043.0605" x2="1318.7573" y1="309.6387" y2="309.6387"/><text fill="#000000" font-family="sans-serif" font-size="13" font-weight="bold" lengthAdjust="spacing" textLength="8.5757" x="1050.0605" y="304.8965">5</text><text fill="#000000" font-family="sans-serif" font-size="13" lengthAdjust="spacing" textLength="236.5454" x="1062.6362" y="304.8965">result = new JsonResponse(response)</text><polygon fill="#181818" points="1579.1919,334.9492,1589.1919,338.9492,1579.1919,342.9492,1583.1919,338.9492" style="stroke:#181818;stroke-width:1.0;"/><line style="stroke:#181818;stroke-width:1.0;" x1="725.3662" x2="1585.1919" y1="338.9492" y2="338.9492"/><text fill="#000000" font-family="sans-serif" font-size="13" font-weight="bold" lengthAdjust="spacing" textLength="8.5757" x="732.3662" y="334.207">6</text><text fill="#000000" font-family="sans-serif" font-size="13" lengthAdjust="spacing" textLength="90.4922" x="744.9419" y="334.207">save(loginDto)</text><polygon fill="#181818" points="539.1572,364.2598,529.1572,368.2598,539.1572,372.2598,535.1572,368.2598" style="stroke:#181818;stroke-width:1.0;"/><line style="stroke:#181818;stroke-width:1.0;stroke-dasharray:2.0,2.0;" x1="533.1572" x2="724.3662" y1="368.2598" y2="368.2598"/><text fill="#000000" font-family="sans-serif" font-size="13" font-weight="bold" lengthAdjust="spacing" textLength="8.5757" x="545.1572" y="363.5176">7</text><text fill="#000000" font-family="sans-serif" font-size="13" lengthAdjust="spacing" textLength="35.877" x="557.7329" y="363.5176">result</text><polygon fill="#181818" points="61.5146,393.5703,51.5146,397.5703,61.5146,401.5703,57.5146,397.5703" style="stroke:#181818;stroke-width:1.0;"/><line style="stroke:#181818;stroke-width:1.0;stroke-dasharray:2.0,2.0;" x1="55.5146" x2="527.1572" y1="397.5703" y2="397.5703"/><text fill="#000000" font-family="sans-serif" font-size="13" font-weight="bold" lengthAdjust="spacing" textLength="8.5757" x="67.5146" y="392.8281">8</text><text fill="#000000" font-family="sans-serif" font-size="13" lengthAdjust="spacing" textLength="265.0781" x="80.0903" y="392.8281">200 OK (een cookie met ingelogde status)</text><path d="M10,419.5703 L158.6064,419.5703 L158.6064,426.8809 L148.6064,436.8809 L10,436.8809 L10,419.5703 " fill="#EEEEEE" style="stroke:#000000;stroke-width:1.5;"/><rect fill="none" height="267.1055" style="stroke:#000000;stroke-width:1.5;" width="1640.4404" x="10" y="419.5703"/><text fill="#000000" font-family="sans-serif" font-size="13" font-weight="bold" lengthAdjust="spacing" textLength="103.6064" x="25" y="433.1387">Check Ingelogd</text><polygon fill="#181818" points="516.1572,469.502,526.1572,473.502,516.1572,477.502,520.1572,473.502" style="stroke:#181818;stroke-width:1.0;"/><line style="stroke:#181818;stroke-width:1.0;" x1="50.5146" x2="522.1572" y1="473.502" y2="473.502"/><text fill="#000000" font-family="sans-serif" font-size="13" font-weight="bold" lengthAdjust="spacing" textLength="8.5757" x="57.5146" y="461.1045">9</text><text fill="#000000" font-family="sans-serif" font-size="13" lengthAdjust="spacing" textLength="188.8555" x="70.0903" y="453.4492">GET /authorisation/logged-in</text><text fill="#000000" font-family="sans-serif" font-size="13" lengthAdjust="spacing" textLength="424.6138" x="86.5435" y="468.7598">cookie: login-token="f3126624-9db2-456f-8e5f-1974d636c988"</text><polygon fill="#181818" points="713.3662,498.8125,723.3662,502.8125,713.3662,506.8125,717.3662,502.8125" style="stroke:#181818;stroke-width:1.0;"/><line style="stroke:#181818;stroke-width:1.0;" x1="528.1572" x2="719.3662" y1="502.8125" y2="502.8125"/><text fill="#000000" font-family="sans-serif" font-size="13" font-weight="bold" lengthAdjust="spacing" textLength="17.1514" x="535.1572" y="498.0703">10</text><text fill="#000000" font-family="sans-serif" font-size="13" lengthAdjust="spacing" textLength="147.9956" x="556.3086" y="498.0703">isLoggedIn(loginToken)</text><polygon fill="#181818" points="1579.1919,528.123,1589.1919,532.123,1579.1919,536.123,1583.1919,532.123" style="stroke:#181818;stroke-width:1.0;"/><line style="stroke:#181818;stroke-width:1.0;" x1="725.3662" x2="1585.1919" y1="532.123" y2="532.123"/><text fill="#000000" font-family="sans-serif" font-size="13" font-weight="bold" lengthAdjust="spacing" textLength="17.1514" x="732.3662" y="527.3809">11</text><text fill="#000000" font-family="sans-serif" font-size="13" lengthAdjust="spacing" textLength="237.8594" x="753.5176" y="527.3809">username = findByToken(loginToken)</text><polygon fill="#181818" points="1031.0605,557.4336,1041.0605,561.4336,1031.0605,565.4336,1035.0605,561.4336" style="stroke:#181818;stroke-width:1.0;"/><line style="stroke:#181818;stroke-width:1.0;" x1="725.3662" x2="1037.0605" y1="561.4336" y2="561.4336"/><text fill="#000000" font-family="sans-serif" font-size="13" font-weight="bold" lengthAdjust="spacing" textLength="17.1514" x="732.3662" y="556.6914">12</text><text fill="#000000" font-family="sans-serif" font-size="13" lengthAdjust="spacing" textLength="272.543" x="753.5176" y="556.6914">result = isLoggedIn(loginToken, username)</text><polygon fill="#181818" points="1448.2515,586.7441,1458.2515,590.7441,1448.2515,594.7441,1452.2515,590.7441" style="stroke:#181818;stroke-width:1.0;"/><line style="stroke:#181818;stroke-width:1.0;" x1="1043.0605" x2="1454.2515" y1="590.7441" y2="590.7441"/><text fill="#000000" font-family="sans-serif" font-size="13" font-weight="bold" lengthAdjust="spacing" textLength="17.1514" x="1050.0605" y="586.002">13</text><text fill="#000000" font-family="sans-serif" font-size="13" lengthAdjust="spacing" textLength="163.8647" x="1071.2119" y="586.002">response = UniRest.post()</text><polygon fill="#181818" points="1312.7573,616.0547,1322.7573,620.0547,1312.7573,624.0547,1316.7573,620.0547" style="stroke:#181818;stroke-width:1.0;"/><line style="stroke:#181818;stroke-width:1.0;" x1="1043.0605" x2="1318.7573" y1="620.0547" y2="620.0547"/><text fill="#000000" font-family="sans-serif" font-size="13" font-weight="bold" lengthAdjust="spacing" textLength="17.1514" x="1050.0605" y="615.3125">14</text><text fill="#000000" font-family="sans-serif" font-size="13" lengthAdjust="spacing" textLength="236.5454" x="1071.2119" y="615.3125">result = new JsonResponse(response)</text><polygon fill="#181818" points="539.1572,645.3652,529.1572,649.3652,539.1572,653.3652,535.1572,649.3652" style="stroke:#181818;stroke-width:1.0;"/><line style="stroke:#181818;stroke-width:1.0;stroke-dasharray:2.0,2.0;" x1="533.1572" x2="724.3662" y1="649.3652" y2="649.3652"/><text fill="#000000" font-family="sans-serif" font-size="13" font-weight="bold" lengthAdjust="spacing" textLength="17.1514" x="545.1572" y="644.623">15</text><text fill="#000000" font-family="sans-serif" font-size="13" lengthAdjust="spacing" textLength="35.877" x="566.3086" y="644.623">result</text><polygon fill="#181818" points="61.5146,674.6758,51.5146,678.6758,61.5146,682.6758,57.5146,678.6758" style="stroke:#181818;stroke-width:1.0;"/><line style="stroke:#181818;stroke-width:1.0;stroke-dasharray:2.0,2.0;" x1="55.5146" x2="527.1572" y1="678.6758" y2="678.6758"/><text fill="#000000" font-family="sans-serif" font-size="13" font-weight="bold" lengthAdjust="spacing" textLength="17.1514" x="67.5146" y="673.9336">16</text><text fill="#000000" font-family="sans-serif" font-size="13" lengthAdjust="spacing" textLength="166.48" x="88.666" y="673.9336">200 OK true (is ingeloged)</text><!--SRC=[lPDBRzf058Nt_XLNNX4fJi8Z12nHYTA7Q2ib0hhBPkovE2FCZ3jp3Kch_lTUsnWmXKqNzMeUzzmpSxunAKeHvlWZHqqAGIgHMB4EOPmIMYruROCGcNph23Lg44972YLgpnCn6GipL3zLWfRdEHcThwDYd0bBAbQPq0InqMHDcg85uS0_JCDdFSxfnLZbsCZeoNx7RpHmQ3SgnbAz6vzAvzNo9n4BYKrrd2g-MsLT3baxbSLrwUt9cesIQ2VbHbDdqML6kygsdh3sYpDwjfis5I9JPJ6-bjcbnS8Pit6cV4yA4f7Wxlj1ePHHOI2ZU87hB1N41bvYJPx1LAScIJZsEcy8tXqb6yBJutm1j-8ub5kMA0tF6lWhnn_8m0X-WP-xueHhz4EVOMwiGkTVWvy9vxR6Ibxk9ftPTkWMxLSVVdlU4KGshYbKNLjrxoklHbKShWgxo35FYMrFQtTWkBJ8wP3t2BvhnGdJJMOSjOuBznWENJLkuHX9gwvf7APEEGGdDdZkm2TnLlqRr-QAElmGEdTtyFWLMiZ_H6pCYl-TDH8edI0tbmYE1ENkolDGonhYv0NZ5QEiQhoBB3z_F8SoGHdiSLQUEm01cHNgaR_ijZlzVgSN36NK2Nht_MKmmFjbq1u-z6I_su-7Wu5_aQLotqgJwGxIecXw8SNw_J20fTBo_LjPV4dtrrCuQtMzx_e_tyQ_SIUR8xIKgu6ZPD8bwZy0]--></g></svg>