<svg xmlns="http://www.w3.org/2000/svg" xmlns:xlink="http://www.w3.org/1999/xlink" contentStyleType="text/css" height="798px" preserveAspectRatio="none" style="width:1652px;height:798px;background:#FFFFFF;" version="1.1" viewBox="0 0 1652 798" width="1652px" zoomAndPan="magnify"><title>Sequentie diagram: Alternatieve bouwstenen aanbieden</title><defs/><g><text fill="#000000" font-family="sans-serif" font-size="14" font-weight="bold" lengthAdjust="spacing" textLength="401.584" x="626.8972" y="28.5352">Sequentie diagram: Alternatieve bouwstenen aanbieden</text><rect fill="none" height="267.1055" style="stroke:#000000;stroke-width:1.5;" width="1636.3784" x="10" y="138.4648"/><rect fill="none" height="267.1055" style="stroke:#000000;stroke-width:1.5;" width="1636.3784" x="10" y="419.5703"/><line style="stroke:#181818;stroke-width:0.5;stroke-dasharray:5.0,5.0;" x1="50" x2="50" y1="121.4648" y2="703.6758"/><line style="stroke:#181818;stroke-width:0.5;stroke-dasharray:5.0,5.0;" x1="527.6646" x2="527.6646" y1="121.4648" y2="703.6758"/><line style="stroke:#181818;stroke-width:0.5;stroke-dasharray:5.0,5.0;" x1="721.2192" x2="721.2192" y1="121.4648" y2="703.6758"/><line style="stroke:#181818;stroke-width:0.5;stroke-dasharray:5.0,5.0;" x1="1038.813" x2="1038.813" y1="121.4648" y2="703.6758"/><line style="stroke:#181818;stroke-width:0.5;stroke-dasharray:5.0,5.0;" x1="1319.8931" x2="1319.8931" y1="121.4648" y2="703.6758"/><line style="stroke:#181818;stroke-width:0.5;stroke-dasharray:5.0,5.0;" x1="1455.4976" x2="1455.4976" y1="121.4648" y2="703.6758"/><line style="stroke:#181818;stroke-width:0.5;stroke-dasharray:5.0,5.0;" x1="1586.8813" x2="1586.8813" y1="121.4648" y2="703.6758"/><text fill="#000000" font-family="sans-serif" font-size="14" lengthAdjust="spacing" textLength="55.0293" x="20" y="118.5117">Reiziger</text><ellipse cx="50.5146" cy="53.4766" fill="#E2E2F0" rx="8" ry="8" style="stroke:#181818;stroke-width:0.5;"/><path d="M50.5146,61.4766 L50.5146,88.4766 M37.5146,69.4766 L63.5146,69.4766 M50.5146,88.4766 L37.5146,103.4766 M50.5146,88.4766 L63.5146,103.4766 " fill="none" style="stroke:#181818;stroke-width:0.5;"/><text fill="#000000" font-family="sans-serif" font-size="14" lengthAdjust="spacing" textLength="55.0293" x="20" y="716.2109">Reiziger</text><ellipse cx="50.5146" cy="727.6641" fill="#E2E2F0" rx="8" ry="8" style="stroke:#181818;stroke-width:0.5;"/><path d="M50.5146,735.6641 L50.5146,762.6641 M37.5146,743.6641 L63.5146,743.6641 M50.5146,762.6641 L37.5146,777.6641 M50.5146,762.6641 L63.5146,777.6641 " fill="none" style="stroke:#181818;stroke-width:0.5;"/><rect fill="#E2E2F0" height="46.9766" rx="2.5" ry="2.5" style="stroke:#181818;stroke-width:0.5;" width="94.9854" x="480.6646" y="73.4883"/><text fill="#000000" font-family="sans-serif" font-size="14" lengthAdjust="spacing" textLength="29.7842" x="513.2651" y="94.0234">app:</text><text fill="#000000" font-family="sans-serif" font-size="14" lengthAdjust="spacing" textLength="80.9854" x="487.6646" y="110.5117">TripTopApp</text><rect fill="#E2E2F0" height="46.9766" rx="2.5" ry="2.5" style="stroke:#181818;stroke-width:0.5;" width="94.9854" x="480.6646" y="702.6758"/><text fill="#000000" font-family="sans-serif" font-size="14" lengthAdjust="spacing" textLength="29.7842" x="513.2651" y="723.2109">app:</text><text fill="#000000" font-family="sans-serif" font-size="14" lengthAdjust="spacing" textLength="80.9854" x="487.6646" y="739.6992">TripTopApp</text><rect fill="#E2E2F0" height="46.9766" rx="2.5" ry="2.5" style="stroke:#181818;stroke-width:0.5;" width="200.1699" x="621.2192" y="73.4883"/><text fill="#000000" font-family="sans-serif" font-size="14" lengthAdjust="spacing" textLength="51.3584" x="695.625" y="94.0234">service:</text><text fill="#000000" font-family="sans-serif" font-size="14" lengthAdjust="spacing" textLength="186.1699" x="628.2192" y="110.5117">AuthorisationServiceFacade</text><rect fill="#E2E2F0" height="46.9766" rx="2.5" ry="2.5" style="stroke:#181818;stroke-width:0.5;" width="200.1699" x="621.2192" y="702.6758"/><text fill="#000000" font-family="sans-serif" font-size="14" lengthAdjust="spacing" textLength="51.3584" x="695.625" y="723.2109">service:</text><text fill="#000000" font-family="sans-serif" font-size="14" lengthAdjust="spacing" textLength="186.1699" x="628.2192" y="739.6992">AuthorisationServiceFacade</text><rect fill="#E2E2F0" height="46.9766" rx="2.5" ry="2.5" style="stroke:#181818;stroke-width:0.5;" width="160.3711" x="958.813" y="73.4883"/><text fill="#000000" font-family="sans-serif" font-size="14" lengthAdjust="spacing" textLength="41.4189" x="1018.2891" y="94.0234">client:</text><text fill="#000000" font-family="sans-serif" font-size="14" lengthAdjust="spacing" textLength="146.3711" x="965.813" y="110.5117">IdentityProviderClient</text><rect fill="#E2E2F0" height="46.9766" rx="2.5" ry="2.5" style="stroke:#181818;stroke-width:0.5;" width="160.3711" x="958.813" y="702.6758"/><text fill="#000000" font-family="sans-serif" font-size="14" lengthAdjust="spacing" textLength="41.4189" x="1018.2891" y="723.2109">client:</text><text fill="#000000" font-family="sans-serif" font-size="14" lengthAdjust="spacing" textLength="146.3711" x="965.813" y="739.6992">IdentityProviderClient</text><rect fill="#E2E2F0" height="46.9766" rx="2.5" ry="2.5" style="stroke:#181818;stroke-width:0.5;" width="107.6045" x="1266.8931" y="73.4883"/><text fill="#000000" font-family="sans-serif" font-size="14" lengthAdjust="spacing" textLength="66.1309" x="1287.6299" y="94.0234">response:</text><text fill="#000000" font-family="sans-serif" font-size="14" lengthAdjust="spacing" textLength="93.6045" x="1273.8931" y="110.5117">JsonResponse</text><rect fill="#E2E2F0" height="46.9766" rx="2.5" ry="2.5" style="stroke:#181818;stroke-width:0.5;" width="107.6045" x="1266.8931" y="702.6758"/><text fill="#000000" font-family="sans-serif" font-size="14" lengthAdjust="spacing" textLength="66.1309" x="1287.6299" y="723.2109">response:</text><text fill="#000000" font-family="sans-serif" font-size="14" lengthAdjust="spacing" textLength="93.6045" x="1273.8931" y="739.6992">JsonResponse</text><rect fill="#E2E2F0" height="46.9766" rx="2.5" ry="2.5" style="stroke:#181818;stroke-width:0.5;" width="143.3838" x="1384.4976" y="73.4883"/><text fill="#000000" font-family="sans-serif" font-size="14" lengthAdjust="spacing" textLength="85.0664" x="1413.6563" y="94.0234">external api:</text><text fill="#000000" font-family="sans-serif" font-size="14" lengthAdjust="spacing" textLength="129.3838" x="1391.4976" y="110.5117">IdentityProviderApi</text><rect fill="#E2E2F0" height="46.9766" rx="2.5" ry="2.5" style="stroke:#181818;stroke-width:0.5;" width="143.3838" x="1384.4976" y="702.6758"/><text fill="#000000" font-family="sans-serif" font-size="14" lengthAdjust="spacing" textLength="85.0664" x="1413.6563" y="723.2109">external api:</text><text fill="#000000" font-family="sans-serif" font-size="14" lengthAdjust="spacing" textLength="129.3838" x="1391.4976" y="739.6992">IdentityProviderApi</text><text fill="#000000" font-family="sans-serif" font-size="14" lengthAdjust="spacing" textLength="22.0527" x="1573.1035" y="102.0234">db:</text><text fill="#000000" font-family="sans-serif" font-size="14" lengthAdjust="spacing" textLength="92.4971" x="1537.8813" y="118.5117">JdbcTemplate</text><path d="M1569.1299,52.4883 C1569.1299,42.4883 1587.1299,42.4883 1587.1299,42.4883 C1587.1299,42.4883 1605.1299,42.4883 1605.1299,52.4883 L1605.1299,78.4883 C1605.1299,88.4883 1587.1299,88.4883 1587.1299,88.4883 C1587.1299,88.4883 1569.1299,88.4883 1569.1299,78.4883 L1569.1299,52.4883 " fill="#E2E2F0" style="stroke:#181818;stroke-width:1.5;"/><path d="M1569.1299,52.4883 C1569.1299,62.4883 1587.1299,62.4883 1587.1299,62.4883 C1587.1299,62.4883 1605.1299,62.4883 1605.1299,52.4883 " fill="none" style="stroke:#181818;stroke-width:1.5;"/><text fill="#000000" font-family="sans-serif" font-size="14" lengthAdjust="spacing" textLength="22.0527" x="1573.1035" y="716.2109">db:</text><text fill="#000000" font-family="sans-serif" font-size="14" lengthAdjust="spacing" textLength="92.4971" x="1537.8813" y="732.6992">JdbcTemplate</text><path d="M1569.1299,745.6523 C1569.1299,735.6523 1587.1299,735.6523 1587.1299,735.6523 C1587.1299,735.6523 1605.1299,735.6523 1605.1299,745.6523 L1605.1299,771.6523 C1605.1299,781.6523 1587.1299,781.6523 1587.1299,781.6523 C1587.1299,781.6523 1569.1299,781.6523 1569.1299,771.6523 L1569.1299,745.6523 " fill="#E2E2F0" style="stroke:#181818;stroke-width:1.5;"/><path d="M1569.1299,745.6523 C1569.1299,755.6523 1587.1299,755.6523 1587.1299,755.6523 C1587.1299,755.6523 1605.1299,755.6523 1605.1299,745.6523 " fill="none" style="stroke:#181818;stroke-width:1.5;"/><path d="M10,138.4648 L113.6841,138.4648 L113.6841,145.7754 L103.6841,155.7754 L10,155.7754 L10,138.4648 " fill="#EEEEEE" style="stroke:#000000;stroke-width:1.5;"/><rect fill="none" height="267.1055" style="stroke:#000000;stroke-width:1.5;" width="1636.3784" x="10" y="138.4648"/><text fill="#000000" font-family="sans-serif" font-size="13" font-weight="bold" lengthAdjust="spacing" textLength="58.6841" x="25" y="152.0332">Inloggen</text><polygon fill="#181818" points="516.1572,188.3965,526.1572,192.3965,516.1572,196.3965,520.1572,192.3965" style="stroke:#181818;stroke-width:1.0;"/><line style="stroke:#181818;stroke-width:1.0;" x1="50.5146" x2="522.1572" y1="192.3965" y2="192.3965"/><text fill="#000000" font-family="sans-serif" font-size="13" font-weight="bold" lengthAdjust="spacing" textLength="8.5757" x="57.5146" y="179.999">1</text><text fill="#000000" font-family="sans-serif" font-size="13" lengthAdjust="spacing" textLength="165.6484" x="70.0903" y="172.3438">POST /authorisation/login</text><text fill="#000000" font-family="sans-serif" font-size="13" lengthAdjust="spacing" textLength="401.1909" x="86.5435" y="187.6543">loginDto = { "username":"edevries", "password":"3g2Rw9sT1x" }</text><polygon fill="#181818" points="709.3042,217.707,719.3042,221.707,709.3042,225.707,713.3042,221.707" style="stroke:#181818;stroke-width:1.0;"/><line style="stroke:#181818;stroke-width:1.0;" x1="528.1572" x2="715.3042" y1="221.707" y2="221.707"/><text fill="#000000" font-family="sans-serif" font-size="13" font-weight="bold" lengthAdjust="spacing" textLength="8.5757" x="535.1572" y="216.9648">2</text><text fill="#000000" font-family="sans-serif" font-size="13" lengthAdjust="spacing" textLength="94.3896" x="547.7329" y="216.9648">login(loginDto)</text><polygon fill="#181818" points="1026.9985,247.0176,1036.9985,251.0176,1026.9985,255.0176,1030.9985,251.0176" style="stroke:#181818;stroke-width:1.0;"/><line style="stroke:#181818;stroke-width:1.0;" x1="721.3042" x2="1032.9985" y1="251.0176" y2="251.0176"/><text fill="#000000" font-family="sans-serif" font-size="13" font-weight="bold" lengthAdjust="spacing" textLength="8.5757" x="728.3042" y="246.2754">3</text><text fill="#000000" font-family="sans-serif" font-size="13" lengthAdjust="spacing" textLength="148.8271" x="740.8799" y="246.2754">result = login(loginDto)</text><polygon fill="#181818" points="1444.1895,276.3281,1454.1895,280.3281,1444.1895,284.3281,1448.1895,280.3281" style="stroke:#181818;stroke-width:1.0;"/><line style="stroke:#181818;stroke-width:1.0;" x1="1038.9985" x2="1450.1895" y1="280.3281" y2="280.3281"/><text fill="#000000" font-family="sans-serif" font-size="13" font-weight="bold" lengthAdjust="spacing" textLength="8.5757" x="1045.9985" y="275.5859">4</text><text fill="#000000" font-family="sans-serif" font-size="13" lengthAdjust="spacing" textLength="163.8647" x="1058.5742" y="275.5859">response = UniRest.post()</text><polygon fill="#181818" points="1308.6953,305.6387,1318.6953,309.6387,1308.6953,313.6387,1312.6953,309.6387" style="stroke:#181818;stroke-width:1.0;"/><line style="stroke:#181818;stroke-width:1.0;" x1="1038.9985" x2="1314.6953" y1="309.6387" y2="309.6387"/><text fill="#000000" font-family="sans-serif" font-size="13" font-weight="bold" lengthAdjust="spacing" textLength="8.5757" x="1045.9985" y="304.8965">5</text><text fill="#000000" font-family="sans-serif" font-size="13" lengthAdjust="spacing" textLength="236.5454" x="1058.5742" y="304.8965">result = new JsonResponse(response)</text><polygon fill="#181818" points="1575.1299,334.9492,1585.1299,338.9492,1575.1299,342.9492,1579.1299,338.9492" style="stroke:#181818;stroke-width:1.0;"/><line style="stroke:#181818;stroke-width:1.0;" x1="721.3042" x2="1581.1299" y1="338.9492" y2="338.9492"/><text fill="#000000" font-family="sans-serif" font-size="13" font-weight="bold" lengthAdjust="spacing" textLength="8.5757" x="728.3042" y="334.207">6</text><text fill="#000000" font-family="sans-serif" font-size="13" lengthAdjust="spacing" textLength="90.4922" x="740.8799" y="334.207">save(loginDto)</text><polygon fill="#181818" points="539.1572,364.2598,529.1572,368.2598,539.1572,372.2598,535.1572,368.2598" style="stroke:#181818;stroke-width:1.0;"/><line style="stroke:#181818;stroke-width:1.0;stroke-dasharray:2.0,2.0;" x1="533.1572" x2="720.3042" y1="368.2598" y2="368.2598"/><text fill="#000000" font-family="sans-serif" font-size="13" font-weight="bold" lengthAdjust="spacing" textLength="8.5757" x="545.1572" y="363.5176">7</text><text fill="#000000" font-family="sans-serif" font-size="13" lengthAdjust="spacing" textLength="35.877" x="557.7329" y="363.5176">result</text><polygon fill="#181818" points="61.5146,393.5703,51.5146,397.5703,61.5146,401.5703,57.5146,397.5703" style="stroke:#181818;stroke-width:1.0;"/><line style="stroke:#181818;stroke-width:1.0;stroke-dasharray:2.0,2.0;" x1="55.5146" x2="527.1572" y1="397.5703" y2="397.5703"/><text fill="#000000" font-family="sans-serif" font-size="13" font-weight="bold" lengthAdjust="spacing" textLength="8.5757" x="67.5146" y="392.8281">8</text><text fill="#000000" font-family="sans-serif" font-size="13" lengthAdjust="spacing" textLength="265.0781" x="80.0903" y="392.8281">200 OK (een cookie met ingelogde status)</text><path d="M10,419.5703 L158.6064,419.5703 L158.6064,426.8809 L148.6064,436.8809 L10,436.8809 L10,419.5703 " fill="#EEEEEE" style="stroke:#000000;stroke-width:1.5;"/><rect fill="none" height="267.1055" style="stroke:#000000;stroke-width:1.5;" width="1636.3784" x="10" y="419.5703"/><text fill="#000000" font-family="sans-serif" font-size="13" font-weight="bold" lengthAdjust="spacing" textLength="103.6064" x="25" y="433.1387">Check Ingelogd</text><polygon fill="#181818" points="516.1572,469.502,526.1572,473.502,516.1572,477.502,520.1572,473.502" style="stroke:#181818;stroke-width:1.0;"/><line style="stroke:#181818;stroke-width:1.0;" x1="50.5146" x2="522.1572" y1="473.502" y2="473.502"/><text fill="#000000" font-family="sans-serif" font-size="13" font-weight="bold" lengthAdjust="spacing" textLength="8.5757" x="57.5146" y="461.1045">9</text><text fill="#000000" font-family="sans-serif" font-size="13" lengthAdjust="spacing" textLength="188.8555" x="70.0903" y="453.4492">GET /authorisation/logged-in</text><text fill="#000000" font-family="sans-serif" font-size="13" lengthAdjust="spacing" textLength="424.6138" x="86.5435" y="468.7598">cookie: login-token="f3126624-9db2-456f-8e5f-1974d636c988"</text><polygon fill="#181818" points="709.3042,498.8125,719.3042,502.8125,709.3042,506.8125,713.3042,502.8125" style="stroke:#181818;stroke-width:1.0;"/><line style="stroke:#181818;stroke-width:1.0;" x1="528.1572" x2="715.3042" y1="502.8125" y2="502.8125"/><text fill="#000000" font-family="sans-serif" font-size="13" font-weight="bold" lengthAdjust="spacing" textLength="17.1514" x="535.1572" y="498.0703">10</text><text fill="#000000" font-family="sans-serif" font-size="13" lengthAdjust="spacing" textLength="147.9956" x="556.3086" y="498.0703">isLoggedIn(loginToken)</text><polygon fill="#181818" points="1575.1299,528.123,1585.1299,532.123,1575.1299,536.123,1579.1299,532.123" style="stroke:#181818;stroke-width:1.0;"/><line style="stroke:#181818;stroke-width:1.0;" x1="721.3042" x2="1581.1299" y1="532.123" y2="532.123"/><text fill="#000000" font-family="sans-serif" font-size="13" font-weight="bold" lengthAdjust="spacing" textLength="17.1514" x="728.3042" y="527.3809">11</text><text fill="#000000" font-family="sans-serif" font-size="13" lengthAdjust="spacing" textLength="237.8594" x="749.4556" y="527.3809">username = findByToken(loginToken)</text><polygon fill="#181818" points="1026.9985,557.4336,1036.9985,561.4336,1026.9985,565.4336,1030.9985,561.4336" style="stroke:#181818;stroke-width:1.0;"/><line style="stroke:#181818;stroke-width:1.0;" x1="721.3042" x2="1032.9985" y1="561.4336" y2="561.4336"/><text fill="#000000" font-family="sans-serif" font-size="13" font-weight="bold" lengthAdjust="spacing" textLength="17.1514" x="728.3042" y="556.6914">12</text><text fill="#000000" font-family="sans-serif" font-size="13" lengthAdjust="spacing" textLength="272.543" x="749.4556" y="556.6914">result = isLoggedIn(loginToken, username)</text><polygon fill="#181818" points="1444.1895,586.7441,1454.1895,590.7441,1444.1895,594.7441,1448.1895,590.7441" style="stroke:#181818;stroke-width:1.0;"/><line style="stroke:#181818;stroke-width:1.0;" x1="1038.9985" x2="1450.1895" y1="590.7441" y2="590.7441"/><text fill="#000000" font-family="sans-serif" font-size="13" font-weight="bold" lengthAdjust="spacing" textLength="17.1514" x="1045.9985" y="586.002">13</text><text fill="#000000" font-family="sans-serif" font-size="13" lengthAdjust="spacing" textLength="163.8647" x="1067.1499" y="586.002">response = UniRest.post()</text><polygon fill="#181818" points="1308.6953,616.0547,1318.6953,620.0547,1308.6953,624.0547,1312.6953,620.0547" style="stroke:#181818;stroke-width:1.0;"/><line style="stroke:#181818;stroke-width:1.0;" x1="1038.9985" x2="1314.6953" y1="620.0547" y2="620.0547"/><text fill="#000000" font-family="sans-serif" font-size="13" font-weight="bold" lengthAdjust="spacing" textLength="17.1514" x="1045.9985" y="615.3125">14</text><text fill="#000000" font-family="sans-serif" font-size="13" lengthAdjust="spacing" textLength="236.5454" x="1067.1499" y="615.3125">result = new JsonResponse(response)</text><polygon fill="#181818" points="539.1572,645.3652,529.1572,649.3652,539.1572,653.3652,535.1572,649.3652" style="stroke:#181818;stroke-width:1.0;"/><line style="stroke:#181818;stroke-width:1.0;stroke-dasharray:2.0,2.0;" x1="533.1572" x2="720.3042" y1="649.3652" y2="649.3652"/><text fill="#000000" font-family="sans-serif" font-size="13" font-weight="bold" lengthAdjust="spacing" textLength="17.1514" x="545.1572" y="644.623">15</text><text fill="#000000" font-family="sans-serif" font-size="13" lengthAdjust="spacing" textLength="35.877" x="566.3086" y="644.623">result</text><polygon fill="#181818" points="61.5146,674.6758,51.5146,678.6758,61.5146,682.6758,57.5146,678.6758" style="stroke:#181818;stroke-width:1.0;"/><line style="stroke:#181818;stroke-width:1.0;stroke-dasharray:2.0,2.0;" x1="55.5146" x2="527.1572" y1="678.6758" y2="678.6758"/><text fill="#000000" font-family="sans-serif" font-size="13" font-weight="bold" lengthAdjust="spacing" textLength="17.1514" x="67.5146" y="673.9336">16</text><text fill="#000000" font-family="sans-serif" font-size="13" lengthAdjust="spacing" textLength="166.48" x="88.666" y="673.9336">200 OK true (is ingeloged)</text><!--SRC=[lPDTRzem58RlyokEV4MbPYqVPH29IQpxKBT9hI2xwuqJ7rABO7ks0ssd_VUT99X2eTAkbXkEJzxpuVS9NleIOOw_AbHU8WZ92yjN2KnBZrPnogqHCbrjd4U52ZXNcKI1AefuxhM56SfdMQ2bS-MrgbPP7HjklSobuSe3DmQu0qQ_oRrAhJIfDbDZs87AeLtB71lbDYRrjF8Fsaf7YsWrRzDVUCu57bRdfSHw51Mt8TNUYFfE_kdEwhKKQA-R5uTr5ftHohLZmu5glpcjPjiZUtKRsOZniJ6eh1CdXasDP97WdcUSkk-2kb9azG2HvIckJCaz3OWAgoi3DwhKHK7U1bCX_b3Rby3TxJo52xxlnWLffO9x1VGqyIUlOGA_WLMkNcs5B664QcqbEdOEp73dDjeAIlUBtcmpTcdtaS4VGaU8Q5JmlMtN2KtFeW27D5jxQ-UgqjEyrzejYcPpcRmuF86VIfAd_ftHpdVsXJlZNxegtC0-X4xG72mJV4t0yJMUMZWOs3PkBqgvO702lSjBkFqE7QIFEzTwIN-25NgGga1g9n2SvxvoPr64IWHGrm-OBmbNgucEUNtzV0fNWIBU8Mk7RRsElLwYch15lziR3dk3U2ooNZou6YxY4Lujukxu_K0C-yDyF1gnOrxI_MYwtsn1f7MtDvmA7mUPl91AV7ngn6_L7U4-EUfyr_L_ylzNjjvM21tf0bGKHBF1-HS0]--></g></svg>